<svg viewBox="0 0 1024 512" version="1.1" xmlns="http://www.w3.org/2000/svg">
    <!-- made with Jérôme Muffat-Méridol's SVG map generator at https://jmuffat.com/maps -->
    <clipPath id="clip"><rect x="0" y="0" width="1024" height="512" /></clipPath>
    <g clip-path="url(#clip)">
      <rect fill="#ffffff" id="background" width="1026" height="514" y="-1" x="-1" />
      <g stroke-width="0.5" fill="none">
        <path stroke="#aaaaaa" fill="#ffffff" d="M777.3,445.4L777.4,437.3L783.6,425.8L785.4,418.0L787.4,402.9L789.2,397.8L792.1,393.5L795.9,391.6L800.0,393.9L804.4,404.6L807.5,408.8L811.9,407.5L815.2,405.4L815.0,406.5L820.6,403.3L822.6,402.6L822.2,404.3L822.3,405.5L822.1,406.6L821.3,407.7L823.3,408.5L825.1,407.8L828.7,405.1L827.6,408.6L829.4,409.4L836.2,409.0L839.6,410.7L846.0,415.5L848.6,415.3L849.6,417.3L853.5,422.3L855.4,427.3L855.3,429.4L852.3,427.9L850.8,429.0L846.6,429.8L844.8,430.5L846.4,431.1L847.7,431.9L848.8,432.9L849.8,434.2L844.8,435.4L842.6,436.3L841.2,438.0L840.8,441.5L842.7,442.4L848.6,441.9L848.2,442.5L847.7,443.9L847.4,444.5L849.0,445.8L851.3,448.2L853.1,450.7L852.9,452.7L846.8,457.8L845.3,459.7L843.1,463.7L839.8,467.9L838.7,471.0L838.4,474.6L838.6,478.7L838.9,479.7L841.2,485.1L840.8,490.7L841.2,492.6L842.2,493.9L846.8,498.3L847.4,500.0L846.8,501.7L845.6,502.6L840.8,500.9L839.0,504.2L839.5,507.4L843.0,505.9L845.2,506.1L846.9,509.7L848.0,514.0L806.7,514.0L803.9,474.6L802.1,467.4L798.9,461.3L796.8,459.1L794.9,458.4L780.3,461.7L777.3,445.4M644.3,407.6L644.3,407.6L654.7,407.3L657.7,405.8L660.0,402.7L662.3,400.1L665.4,400.1L694.8,415.0L700.1,418.7L702.4,418.8L705.8,417.2L709.6,414.8L711.6,413.9L713.7,413.5L717.9,414.8L721.9,417.3L725.9,419.4L730.2,419.3L734.3,417.1L737.1,415.0L740.1,413.7L744.5,413.5L758.5,414.5L763.5,414.1L765.5,413.5L766.8,412.4L769.0,409.4L770.7,408.1L772.5,407.7L776.2,407.5L782.2,406.1L785.0,404.9L787.4,402.9L785.4,418.0L783.6,425.8L777.4,437.3L777.3,445.4L780.3,461.7L794.9,458.4L796.8,459.1L798.9,461.3L802.1,467.4L803.9,474.6L806.7,514.0L768.1,514.0L767.9,509.6L766.0,506.0L762.9,503.6L758.8,502.7L755.7,503.7L748.2,508.0L745.1,509.0L738.7,505.3L728.0,489.8L720.9,487.5L720.9,486.2L722.1,486.3L723.4,486.2L721.6,485.3L720.9,485.1L723.4,479.9L724.2,480.5L725.1,480.9L726.1,481.4L727.1,482.4L726.3,478.7L723.7,476.9L721.0,476.7L718.1,479.9L714.9,479.5L713.3,477.8L716.1,476.0L715.1,474.4L713.9,473.6L712.6,473.7L711.0,474.9L710.7,469.9L710.1,467.1L709.2,465.3L700.2,455.8L693.1,452.9L685.9,451.2L680.3,451.9L675.0,449.1L666.5,443.2L658.0,433.0L654.1,429.3L654.6,428.9L654.7,428.8L655.2,427.9L650.9,425.4L648.0,420.2L644.3,407.6,M762.5,514.0L764.3,511.5L765.2,512.5L768.0,514.0L762.5,514.0M603.8,451.5L605.0,449.2L607.2,447.3L610.2,446.5L614.6,446.3L618.6,447.7L618.8,449.5L615.2,450.0L613.2,451.5L609.6,454.0L607.0,454.3L604.5,453.2L603.8,451.5M82.8,97.3L97.1,90.0L110.3,80.7L114.0,78.9L122.0,78.0L126.0,76.3L128.9,73.2L131.1,69.3L134.4,61.0L137.1,56.6L140.0,53.1L142.4,49.3L143.5,43.6L143.1,37.6L141.7,31.8L129.4,2.2L127.2,-2.0L151.9,-2.0L152.0,-1.6L152.7,5.1L154.7,12.3L156.1,15.4L158.3,18.3L166.0,25.7L167.8,28.9L168.0,31.5L167.2,37.9L168.0,39.2L171.4,42.5L172.2,44.2L171.9,47.2L170.9,50.0L169.4,52.2L167.2,53.8L167.2,55.1L169.6,57.1L176.0,66.7L188.2,75.6L200.8,88.4L204.2,91.1L231.6,101.8L257.7,107.6L257.9,102.6L255.9,99.1L248.9,92.2L252.3,91.2L268.8,95.7L269.7,95.3L270.0,92.9L269.3,89.7L270.0,88.8L272.5,88.3L272.5,87.1L268.3,85.9L261.3,77.6L258.3,75.6L253.5,73.8L249.4,69.6L246.5,64.1L245.2,58.9L247.1,60.3L247.5,61.1L247.8,62.8L248.9,62.8L249.0,58.5L251.1,55.9L257.7,52.5L259.9,53.6L260.5,50.5L260.6,46.1L261.3,43.5L263.4,44.1L264.0,47.7L263.5,52.2L262.6,55.1L264.0,56.8L264.4,59.0L264.5,61.4L265.1,64.0L264.8,64.7L265.1,65.5L266.3,66.7L267.2,66.7L267.9,65.9L268.5,64.8L268.8,64.0L269.7,66.1L270.0,68.3L270.0,73.0L271.8,72.2L271.8,72.3L271.7,75.2L275.4,75.6L280.3,73.8L283.9,71.5L288.9,66.5L291.7,64.2L294.5,62.6L298.8,61.5L302.5,62.1L363.3,91.3L352.2,94.1L326.9,96.9L317.2,102.0L316.6,102.6L316.3,101.7L313.9,99.0L313.4,97.9L312.8,97.4L309.0,102.4L298.8,101.7L294.4,100.2L291.0,97.3L290.4,99.8L291.8,102.8L294.2,105.2L296.6,106.2L297.3,107.6L306.1,120.4L307.9,123.7L307.7,126.0L306.6,128.7L306.9,132.6L308.4,139.4L304.4,138.5L303.5,142.0L304.6,150.3L305.7,155.0L308.5,159.0L315.2,165.5L328.2,173.4L330.7,176.3L330.1,179.4L325.9,177.3L318.3,171.4L319.3,174.3L324.0,181.7L332.0,191.1L334.0,194.3L335.7,198.0L337.4,205.7L338.1,212.6L338.1,220.2L338.5,222.3L339.2,223.7L340.1,224.8L340.6,226.0L341.0,229.9L340.9,232.1L340.6,233.6L339.6,234.3L337.9,234.9L336.4,235.6L335.7,236.8L333.8,238.8L329.7,241.2L325.1,243.1L322.1,243.8L319.0,241.8L307.1,231.7L307.5,227.9L309.4,221.4L309.6,218.4L306.4,207.8L288.5,183.9L288.1,182.7L287.8,180.3L287.2,179.0L283.7,175.6L282.5,174.0L277.5,171.9L276.3,169.3L273.4,166.1L262.5,166.1L262.6,163.5L259.4,162.4L253.3,162.0L250.8,160.4L250.1,158.9L249.4,155.7L248.4,154.0L246.9,152.2L237.2,136.3L232.6,131.0L226.6,126.6L225.5,130.2L222.8,129.3L219.7,126.8L217.3,125.4L213.8,125.5L213.2,125.2L206.7,119.1L204.4,117.8L202.2,117.1L200.1,116.8L198.2,116.1L194.5,112.9L192.4,111.5L190.4,110.4L184.5,108.8L181.9,106.0L179.9,102.6L177.1,99.7L175.6,99.7L168.8,97.3L166.0,95.9L164.8,98.5L161.7,100.5L161.1,103.0L159.7,104.0L151.1,106.2L150.1,107.0L140.2,90.8L125.1,98.1L134.3,112.9L130.9,115.3L129.6,115.9L128.2,116.2L125.2,116.4L124.3,116.6L122.6,117.8L117.1,123.8L116.5,123.0L114.3,121.4L111.8,120.5L109.2,120.5L106.5,119.6L96.9,111.8L92.8,109.1L91.5,107.5L90.3,104.8L88.7,102.6L84.3,99.8L82.8,97.3M201.9,51.3L202.5,48.9L203.9,47.4L205.8,46.8L208.1,47.3L209.2,48.0L210.0,48.9L211.4,50.9L234.7,71.0L242.8,76.6L247.0,80.2L248.9,84.5L247.8,88.9L244.4,88.9L240.4,86.6L233.6,80.8L221.8,73.0L214.5,66.4L212.4,65.4L209.5,63.5L206.0,59.3L203.1,54.5L201.9,51.3M125.1,98.1L140.2,90.8L150.1,107.0L147.4,110.0L145.8,110.1L142.7,109.3L141.8,109.4L139.4,111.0L134.3,112.9L125.1,98.1M-2.0,69.8L0.7,69.5L1.6,69.7L6.8,73.9L9.8,75.6L11.3,76.0L16.6,75.5L23.1,74.0L32.0,70.6L39.3,66.6L40.9,63.3L48.2,62.3L58.4,62.3L67.7,64.4L72.1,69.4L75.4,89.1L77.3,91.0L80.3,91.7L82.6,93.1L82.8,97.3L84.3,99.8L88.7,102.6L90.3,104.8L91.5,107.5L92.8,109.1L96.9,111.8L106.5,119.6L109.2,120.5L111.8,120.5L114.3,121.4L116.5,123.0L117.1,123.8L113.3,128.1L114.6,141.1L113.8,145.8L115.6,145.9L116.7,146.1L118.9,147.0L113.5,152.8L112.7,154.0L105.3,152.2L102.7,152.1L99.3,154.0L88.9,161.9L85.4,165.6L82.6,164.6L80.0,163.0L79.2,162.4L74.3,160.3L72.0,159.8L68.7,159.7L67.1,159.2L65.6,158.2L63.7,157.3L60.7,157.2L54.9,158.5L52.0,159.6L49.5,161.1L47.7,160.4L43.6,159.6L42.0,158.5L41.1,156.9L41.7,155.9L42.8,154.8L43.4,152.8L43.8,148.2L44.5,144.9L44.6,141.9L42.2,135.1L41.5,134.4L37.9,132.0L35.6,131.0L33.3,130.5L31.5,131.1L17.4,147.3L16.0,148.3L14.6,147.2L13.7,145.1L13.4,142.9L14.2,141.9L15.7,141.0L16.6,138.8L17.2,136.7L17.9,135.7L20.3,135.4L21.6,134.6L22.1,133.0L22.1,130.5L19.2,127.4L18.5,126.6L18.5,124.4L19.4,120.5L19.7,118.3L19.6,115.3L19.1,112.2L18.0,109.5L16.0,107.6L12.7,106.5L-2.0,104.7L-2.0,69.8M42.8,170.7L44.2,170.6L45.5,171.1L47.1,170.7L49.0,169.8L50.5,170.1L51.5,171.6L52.0,176.3L51.0,177.6L48.0,176.6L42.8,171.8L42.8,170.7M3.6,148.2L4.0,147.8L5.8,150.3L7.1,151.2L13.7,153.6L18.7,153.7L21.8,153.8L23.4,155.0L23.2,157.5L21.0,159.2L18.7,159.5L12.5,158.2L6.2,154.3L5.5,153.2L3.7,149.0L3.6,148.2M-2.0,19.1L12.9,4.6L14.4,3.9L16.4,3.8L20.4,4.0L21.6,3.5L24.7,0.1L27.6,-2.0L28.0,-2.0L30.1,1.2L30.5,6.4L32.9,8.0L37.3,15.4L37.5,16.1L38.1,17.9L37.6,23.2L37.5,27.5L37.6,29.0L39.4,30.0L41.5,29.6L43.7,29.0L46.2,29.1L48.5,31.3L47.6,34.3L45.3,38.0L43.5,42.0L45.4,45.3L40.1,58.0L40.9,63.3L39.3,66.6L32.0,70.6L23.1,74.0L16.6,75.5L11.3,76.0L9.8,75.6L6.8,73.9L1.6,69.7L0.7,69.5L-2.0,69.8L-2.0,19.1M28.0,-2.0L32.0,-2.0L32.7,-1.1L34.5,-0.3L34.7,0.9L36.5,2.4L36.9,4.7L38.9,6.0L39.5,7.6L40.9,8.4L40.6,9.4L40.7,10.6L38.9,12.8L38.5,15.2L37.5,16.1L37.3,15.4L32.9,8.0L30.5,6.4L30.1,1.2L28.0,-2.0M32.0,-2.0L45.2,-2.0L45.1,3.5L45.1,6.4L40.9,8.4L39.5,7.6L38.9,6.0L36.9,4.7L36.5,2.4L34.7,0.9L34.5,-0.3L32.7,-1.1L32.0,-2.0M189.3,503.9L189.4,503.4L189.7,502.0L191.6,499.4L193.7,497.2L195.0,496.3L195.7,494.7L196.1,491.0L196.2,487.2L195.6,485.1L196.2,482.5L197.1,480.9L198.7,480.1L201.2,479.9L202.5,479.1L204.9,475.7L206.1,474.9L207.3,474.6L208.3,473.6L209.2,473.5L210.7,474.1L211.6,475.3L212.3,476.5L213.0,477.3L219.4,479.2L221.2,480.4L225.4,485.9L228.9,489.1L232.8,491.8L237.1,493.9L257.1,498.3L263.7,500.9L270.0,505.3L274.0,508.9L276.5,509.9L283.9,510.6L285.9,511.6L287.5,514.0L245.3,514.0L245.0,511.3L242.1,506.6L238.5,503.5L229.5,499.4L222.2,494.1L217.4,492.7L212.2,492.5L207.6,493.1L202.8,495.3L195.0,501.3L189.3,503.9M189.3,503.9L195.0,501.3L202.8,495.3L207.6,493.1L212.2,492.5L217.4,492.7L222.2,494.1L229.5,499.4L238.5,503.5L242.1,506.6L245.0,511.3L245.3,514.0L232.0,514.0L231.0,512.1L226.6,510.5L221.0,510.3L214.3,509.0L208.1,506.5L205.1,505.6L201.2,505.3L194.4,505.5L191.3,505.1L189.3,503.9M99.3,443.9L100.2,441.9L99.8,440.6L99.8,440.1L101.4,440.9L108.4,449.7L109.6,452.6L110.3,455.7L109.8,458.6L107.6,460.7L104.4,461.1L102.2,459.2L100.8,456.2L100.2,453.3L100.3,451.9L101.4,448.1L100.9,446.2L99.8,445.0L99.3,443.9M109.6,490.8L110.1,489.1L111.9,486.9L115.0,485.7L116.9,485.6L120.7,485.9L127.3,487.9L130.1,489.6L128.5,491.3L124.5,493.1L120.5,493.2L117.4,492.4L115.5,491.6L114.5,491.4L113.6,491.0L112.9,490.2L112.0,490.4L110.5,491.2L109.6,490.8M292.2,375.6L296.1,371.8L302.7,370.0L323.2,370.1L330.0,371.6L332.1,372.6L333.1,373.7L334.2,377.6L335.3,380.0L336.7,382.4L340.0,386.8L339.9,389.3L336.9,402.6L334.9,404.8L332.0,407.3L328.8,409.3L326.4,410.1L325.5,409.6L322.7,405.8L321.2,404.7L317.4,403.7L315.8,402.6L311.4,395.0L308.3,391.4L304.0,389.9L299.8,389.4L296.4,387.9L293.8,385.5L292.2,382.2L292.2,375.6M260.2,355.7L260.6,354.7L262.0,354.2L262.6,353.3L263.8,349.4L264.7,347.8L266.3,346.7L266.3,349.2L269.4,355.1L272.0,362.0L271.8,368.6L266.3,373.5L263.4,370.0L261.8,366.7L261.2,363.3L261.3,359.5L261.1,358.7L260.6,357.8L260.2,356.8L260.2,355.7M201.4,405.3L202.0,398.5L203.9,391.0L206.1,387.4L211.8,385.1L214.5,379.6L215.4,372.7L215.4,366.5L214.1,355.6L215.0,351.6L219.2,348.1L229.6,345.2L234.7,342.5L236.6,338.0L242.1,339.6L244.0,341.3L244.0,344.3L243.1,345.0L240.3,344.6L239.1,345.5L239.0,347.2L240.3,357.5L239.3,363.5L235.1,376.2L233.6,389.8L230.4,402.9L225.0,416.3L223.6,418.4L222.3,421.7L224.4,424.2L226.8,426.5L226.6,429.3L224.2,426.7L223.2,428.1L219.9,431.2L219.2,432.4L219.2,441.9L218.0,441.9L214.1,437.5L213.3,434.9L214.3,431.8L209.4,431.4L208.3,428.4L209.2,419.1L210.9,423.5L213.4,424.3L215.7,422.3L216.7,418.4L216.1,416.1L214.6,415.2L212.6,414.8L210.5,413.9L203.0,406.5L201.4,405.3M158.2,288.1L159.5,285.9L161.6,285.3L164.1,285.9L164.8,285.9L166.2,287.2L167.2,289.3L166.8,291.1L165.8,292.1L165.2,292.2L164.7,292.6L165.0,293.3L165.5,294.0L164.7,294.7L163.5,294.6L162.7,293.7L162.1,293.9L161.3,293.7L160.0,292.0L158.8,290.9L158.4,290.1L158.2,288.1M626.8,360.1L627.3,357.9L628.6,355.7L630.4,354.0L632.5,353.4L633.9,354.1L642.1,360.5L643.0,360.7L644.8,360.7L649.4,358.6L651.0,358.2L652.0,358.5L656.6,360.7L659.5,361.7L670.9,361.9L671.6,362.1L673.6,363.4L674.0,363.9L674.4,364.6L675.2,364.3L676.2,363.6L677.0,363.3L681.2,363.7L685.1,364.5L700.1,365.8L734.2,363.2L735.9,362.6L737.7,361.3L739.2,358.7L738.2,357.0L736.5,355.4L735.8,353.3L735.8,351.9L739.1,353.0L741.5,355.1L743.5,357.2L745.1,358.2L747.5,357.1L750.6,355.2L753.3,354.6L754.4,357.5L756.2,357.3L760.0,358.9L763.3,360.9L763.7,361.9L764.8,362.2L765.7,362.8L767.1,363.3L769.3,363.3L770.7,362.7L772.8,361.4L774.7,360.0L775.5,358.8L776.2,354.9L777.8,354.1L783.0,355.7L784.7,355.4L786.5,354.7L788.2,354.3L789.7,355.0L794.0,359.5L803.0,365.2L807.3,369.0L807.6,372.1L809.6,374.2L813.5,376.5L815.0,378.5L817.1,383.3L818.4,384.9L821.3,387.4L817.9,389.3L814.7,393.5L813.8,398.0L817.6,401.4L816.4,402.2L815.7,403.3L815.2,405.4L811.9,407.5L807.5,408.8L804.4,404.6L800.0,393.9L795.9,391.6L792.1,393.5L789.2,397.8L787.4,402.9L785.0,404.9L782.2,406.1L776.2,407.5L772.5,407.7L770.7,408.1L769.0,409.4L766.8,412.4L765.5,413.5L763.5,414.1L758.5,414.5L744.5,413.5L740.1,413.7L737.1,415.0L734.3,417.1L730.2,419.3L725.9,419.4L721.9,417.3L717.9,414.8L713.7,413.5L711.6,413.9L709.6,414.8L705.8,417.2L702.4,418.8L700.1,418.7L694.8,415.0L665.4,400.1L662.3,400.1L660.0,402.7L657.7,405.8L654.7,407.3L644.3,407.6L644.3,407.6L639.2,389.9L627.3,362.6L626.8,360.1M601.5,374.2L603.1,374.6L606.3,376.9L609.3,381.2L610.2,386.0L607.8,387.6L604.3,384.6L602.2,380.3L601.5,376.3L601.5,374.2M-2.0,224.8L15.4,201.3L16.7,197.5L16.8,192.7L15.9,183.5L15.7,182.4L19.7,180.1L22.0,182.3L23.5,181.8L25.0,180.8L26.0,177.6L28.5,178.3L29.4,178.2L30.9,177.6L31.1,178.3L32.1,179.0L31.3,180.6L30.2,181.8L28.9,182.5L27.2,182.7L28.3,184.3L30.1,186.4L32.2,188.3L34.0,189.1L35.7,190.7L39.8,197.8L42.7,199.4L54.6,198.9L57.6,200.9L56.9,207.0L58.2,207.0L58.5,205.8L59.0,203.0L59.4,201.9L60.2,200.8L60.5,200.4L61.9,199.4L63.7,198.6L66.0,197.8L68.1,196.6L69.4,194.2L70.6,194.2L74.3,201.1L95.3,218.4L103.0,230.6L105.8,232.4L109.8,232.9L112.8,234.5L114.6,237.2L115.2,241.3L114.6,243.2L113.7,245.2L113.2,247.1L113.8,249.0L115.9,250.3L117.9,250.2L120.0,249.4L122.0,249.0L126.2,249.2L130.2,250.0L133.4,251.9L134.9,255.4L134.2,259.3L131.8,261.8L125.7,266.0L123.5,269.3L122.3,273.4L122.1,277.8L124.0,289.2L123.9,292.2L122.3,299.8L122.6,302.3L121.3,302.3L122.4,307.4L122.8,319.0L124.5,323.3L129.4,329.6L130.1,330.9L130.3,333.2L130.9,336.2L131.9,339.1L133.7,342.1L133.9,343.4L133.6,348.2L133.1,348.6L132.3,348.5L131.2,349.2L124.2,359.7L122.0,361.5L117.5,364.5L116.1,364.9L114.9,364.6L114.1,364.8L113.8,366.5L113.9,369.5L114.3,370.8L115.2,372.1L113.8,373.5L112.7,372.1L112.0,373.4L111.7,374.3L111.9,375.4L112.7,377.2L109.4,379.3L109.5,384.5L111.9,390.2L115.2,393.7L115.2,395.0L107.9,392.9L104.4,393.1L104.0,396.4L105.0,397.5L105.3,399.1L104.9,400.8L104.0,402.6L105.5,403.4L106.3,404.4L106.5,405.8L106.5,407.7L101.1,404.4L99.1,401.3L96.5,402.7L92.2,406.5L89.8,407.0L87.6,408.3L84.3,411.5L79.8,420.6L79.7,270.3L76.9,265.7L70.2,261.7L-2.0,230.0L-2.0,224.8M-2.0,186.9L-1.3,186.6L14.8,182.9L15.7,182.4L15.9,183.5L16.8,192.7L16.7,197.5L15.4,201.3L-2.0,224.8L-2.0,186.9,M-2.0,230.0L70.2,261.7L76.9,265.7L79.7,270.3L79.8,420.6L79.2,421.6L76.6,421.6L72.5,417.6L70.0,416.6L58.8,416.6L55.5,414.8L52.9,410.5L51.8,405.1L53.2,400.1L54.3,403.1L55.9,404.8L58.1,405.1L60.7,403.9L59.4,403.3L58.1,403.4L56.9,403.9L55.8,400.7L55.7,400.1L52.0,397.4L50.7,397.8L50.7,401.4L47.8,399.8L44.1,396.6L40.9,393.2L38.7,389.2L34.0,384.7L32.6,384.3L31.6,383.1L23.9,369.9L21.6,368.4L19.8,366.5L20.2,362.1L22.1,354.4L21.9,350.7L20.9,347.1L19.1,343.8L14.3,338.2L11.2,331.8L8.7,328.9L4.6,327.3L1.0,327.2L-1.6,326.3L-2.0,324.4L-2.0,230.0M42.1,414.8L45.8,409.8L50.9,411.9L52.7,416.0L54.0,422.2L54.9,423.7L55.6,424.4L55.9,424.9L58.2,428.9L58.7,430.9L58.0,431.7L56.5,432.0L54.6,431.2L52.9,430.0L51.3,429.1L50.1,427.3L49.4,424.7L47.5,422.2L44.3,420.4L42.1,414.8M182.1,210.7L182.8,206.3L182.7,205.0L182.1,202.3L182.2,192.4L182.7,189.8L184.0,188.1L188.8,179.3L189.3,177.6L189.7,172.4L190.2,171.0L192.8,170.5L195.4,173.0L199.3,179.0L200.2,177.9L202.2,176.0L203.0,174.9L205.8,177.8L210.0,178.8L213.8,177.6L215.4,173.8L217.7,175.4L219.4,177.0L220.0,178.9L219.2,181.5L221.9,180.5L223.9,181.5L224.6,183.5L222.9,185.2L223.7,186.0L225.6,187.3L226.6,187.7L229.3,185.9L233.2,187.0L236.6,189.7L237.8,192.9L237.2,193.8L235.9,194.1L234.1,194.2L234.0,195.5L234.1,198.7L234.8,200.3L238.1,202.7L239.1,204.4L237.5,209.9L227.0,220.7L222.9,226.0L224.6,230.0L223.0,233.3L217.3,238.1L214.5,238.7L211.5,236.5L209.0,233.8L207.4,232.4L205.4,231.5L199.3,226.0L197.8,225.6L194.7,225.4L193.2,224.8L191.3,223.3L188.2,218.4L182.7,212.6L182.1,210.7M37.5,16.1L38.5,15.2L38.9,12.8L40.7,10.6L40.6,9.4L40.9,8.4L45.1,6.4L45.1,3.5L46.5,2.4L48.1,2.6L59.3,5.5L60.9,17.8L47.1,18.4L46.1,19.5L45.2,19.7L44.4,19.3L42.0,20.7L40.0,22.4L37.6,23.2L38.1,17.9L37.5,16.1M37.5,27.5L37.6,23.2L40.0,22.4L42.0,20.7L44.4,19.3L45.2,19.7L46.1,19.5L47.1,18.4L60.9,17.8L59.3,5.5L58.4,-2.0L66.7,-2.0L72.1,11.8L73.9,18.6L75.9,30.6L78.8,33.9L80.4,31.2L81.1,27.4L82.5,25.0L80.7,23.0L77.9,16.7L77.3,9.6L77.3,2.9L79.0,-2.0L86.3,-2.0L86.6,-1.1L88.2,-0.1L89.8,0.5L91.7,1.8L93.4,3.3L94.7,5.3L95.4,7.5L96.1,12.5L95.4,17.4L93.0,25.9L90.3,30.6L90.9,36.0L97.6,30.6L105.2,25.8L102.2,21.5L102.7,16.1L100.0,3.2L101.0,-2.0L127.2,-2.0L129.4,2.2L141.7,31.8L143.1,37.6L143.5,43.6L142.4,49.3L140.0,53.1L137.1,56.6L134.4,61.0L131.1,69.3L128.9,73.2L126.0,76.3L122.0,78.0L114.0,78.9L110.3,80.7L97.1,90.0L82.8,97.3L82.6,93.1L80.3,91.7L77.3,91.0L75.4,89.1L72.1,69.4L67.7,64.4L58.4,62.3L48.2,62.3L40.9,63.3L40.1,58.0L45.4,45.3L43.5,42.0L45.3,38.0L47.6,34.3L48.5,31.3L46.2,29.1L43.7,29.0L41.5,29.6L39.4,30.0L37.6,29.0L37.5,27.5M66.7,-2.0L79.0,-2.0L77.3,2.9L77.3,9.6L77.9,16.7L80.7,23.0L82.5,25.0L81.1,27.4L80.4,31.2L78.8,33.9L75.9,30.6L73.9,18.6L72.1,11.8L66.7,-2.0,M86.3,-2.0L101.0,-2.0L100.0,3.2L102.7,16.1L102.2,21.5L105.2,25.8L97.6,30.6L90.9,36.0L90.3,30.6L93.0,25.9L95.4,17.4L96.1,12.5L95.4,7.5L94.7,5.3L93.4,3.3L91.7,1.8L89.8,0.5L88.2,-0.1L86.6,-1.1L86.3,-2.0M45.1,3.5L45.2,-2.0L58.4,-2.0L59.3,5.5L48.1,2.6L46.5,2.4L45.1,3.5" />
<path stroke="#aaaaaa" fill="#3e5cc7" d="M271.7,75.2L271.8,72.3L271.8,72.2L273.4,71.5L276.3,69.1L278.3,65.7L278.7,61.4L278.0,60.2L275.4,56.5L275.0,55.1L275.6,52.8L276.8,51.5L277.9,51.6L278.7,53.8L280.0,53.8L280.2,52.0L280.1,50.6L279.5,49.5L278.7,48.7L282.1,48.8L283.9,47.6L283.9,45.5L281.8,42.9L282.0,41.4L284.7,35.5L286.1,33.3L287.1,35.8L288.7,35.1L290.3,32.6L291.0,29.6L293.7,30.9L296.1,29.6L298.5,27.4L300.9,25.7L303.1,25.5L305.2,26.5L309.6,29.6L308.8,28.7L307.1,25.7L311.2,25.1L319.8,28.8L324.4,29.6L324.0,32.1L325.1,34.0L326.7,34.3L328.3,32.1L328.9,34.9L330.5,36.8L332.2,37.1L333.2,34.7L338.3,35.2L340.6,35.9L337.7,31.2L337.1,26.9L338.7,24.8L341.9,27.1L343.1,25.7L344.4,28.7L346.2,31.3L348.7,31.7L351.8,28.2L352.7,29.4L353.6,30.3L354.8,30.7L357.6,31.1L357.7,31.6L357.6,32.4L358.0,33.3L360.8,36.6L362.2,37.1L364.8,37.2L370.0,38.2L373.6,40.7L379.1,47.4L379.3,48.4L379.1,49.7L379.0,50.8L379.7,51.3L382.1,51.4L383.0,51.7L384.0,52.5L388.3,58.9L390.3,60.5L397.0,68.0L398.7,70.5L400.5,69.4L402.5,70.1L404.2,71.9L405.0,74.3L404.5,77.2L403.1,79.5L402.1,82.1L402.5,85.9L406.2,89.7L410.7,92.4L411.3,92.2L411.8,95.0L411.3,103.5L412.5,108.5L412.4,110.0L411.4,111.7L410.1,112.2L408.8,112.6L407.5,113.8L406.6,116.0L405.4,123.3L404.1,122.3L402.1,119.4L398.7,113.0L396.1,109.7L387.0,101.5L385.2,99.4L384.1,97.9L382.7,96.7L380.1,95.7L363.3,91.3L302.5,62.1L298.8,61.5L294.5,62.6L291.7,64.2L288.9,66.5L283.9,71.5L280.3,73.8L275.4,75.6L271.7,75.2M316.6,102.6L317.2,102.0L326.9,96.9L352.2,94.1L363.3,91.3L380.1,95.7L382.7,96.7L384.1,97.9L385.2,99.4L387.0,101.5L396.1,109.7L398.7,113.0L402.1,119.4L404.1,122.3L405.4,123.3L405.0,125.4L405.5,131.9L408.6,135.6L412.6,138.3L416.1,141.9L417.5,141.9L421.3,139.9L425.6,139.7L435.4,140.6L437.2,140.2L442.8,138.0L444.7,136.8L451.1,129.4L452.1,127.2L452.5,125.9L453.2,124.8L453.5,123.6L452.3,121.2L450.2,114.4L447.3,110.3L447.2,107.6L453.2,103.2L454.0,102.4L455.4,101.3L456.4,98.9L457.1,95.9L457.2,93.5L455.3,95.5L453.0,101.2L451.5,102.4L449.0,102.4L447.3,102.1L439.0,96.9L436.9,94.7L436.0,91.5L437.7,90.1L440.9,88.9L442.5,87.6L439.7,85.9L443.4,84.4L443.9,82.3L442.1,77.5L443.8,76.6L447.5,77.8L453.4,80.6L453.4,79.5L452.6,78.9L450.9,76.8L456.1,77.1L457.2,76.8L457.2,75.5L455.7,72.3L456.5,71.6L458.9,72.7L460.4,75.4L462.0,82.0L459.0,82.8L458.4,85.0L459.2,87.1L460.2,87.7L463.5,84.6L465.0,83.6L467.1,83.2L466.2,84.4L464.5,88.3L466.4,87.5L467.1,87.1L468.2,88.3L467.5,91.7L471.0,96.8L469.5,99.7L470.8,101.5L471.6,103.3L472.0,105.4L472.0,107.6L473.2,107.6L474.2,105.2L475.6,103.4L476.8,101.1L476.9,97.3L480.5,98.3L482.9,99.4L484.5,101.3L485.6,104.9L494.0,104.1L507.3,109.3L519.7,111.7L525.2,102.4L529.2,109.3L534.9,115.4L541.9,120.4L555.0,126.1L555.4,126.7L555.6,127.3L556.2,127.8L558.4,128.5L562.8,128.6L564.9,129.2L566.1,130.4L568.6,135.7L571.7,138.6L572.4,140.6L571.1,143.3L568.0,140.8L567.0,139.6L566.0,138.1L564.9,138.1L564.7,138.9L563.7,140.6L561.0,139.3L557.9,138.6L551.9,138.1L550.3,139.7L547.7,143.2L544.5,146.7L540.7,148.3L537.4,147.5L530.8,144.1L520.9,142.5L517.1,142.6L515.3,143.9L513.7,145.4L509.9,144.0L505.7,141.8L502.9,140.6L499.7,141.8L497.8,144.2L492.1,159.7L491.7,163.5L493.3,163.9L494.0,164.5L493.6,165.5L493.1,166.4L492.9,167.3L493.0,169.3L493.5,171.5L494.7,172.0L496.3,171.4L497.9,170.0L503.8,177.7L502.2,177.7L498.9,178.1L496.2,179.5L495.1,182.2L496.0,184.6L498.0,186.1L500.4,187.4L502.2,189.3L503.6,193.4L504.0,197.8L503.3,202.2L501.2,206.0L498.6,208.1L496.5,208.2L494.3,207.4L486.7,205.5L486.1,205.9L485.6,206.9L484.9,207.9L483.8,208.3L480.4,207.3L478.9,206.0L477.3,205.8L450.8,229.7L449.4,230.7L448.0,229.0L441.3,224.3L438.5,220.9L437.7,219.2L436.7,216.3L436.0,214.6L431.1,209.4L432.2,204.3L430.5,198.0L427.1,192.7L423.0,190.4L417.9,189.0L408.3,182.9L403.2,181.5L400.1,181.1L396.0,179.4L393.2,179.0L391.5,178.1L387.1,173.9L375.8,165.9L373.5,164.9L371.1,163.5L365.6,156.9L363.0,154.6L371.7,147.0L362.9,137.0L358.4,133.3L352.9,130.5L352.9,131.6L351.8,130.5L352.9,129.2L355.2,129.1L354.4,127.5L351.9,125.5L349.4,124.0L342.3,122.6L340.6,121.5L338.5,123.5L336.1,123.8L333.8,122.6L332.0,120.2L332.3,119.4L333.6,118.5L334.5,117.3L333.8,115.8L328.3,110.3L326.1,108.9L323.7,108.0L321.4,107.6L320.7,106.3L320.2,103.9L319.2,102.3L317.0,103.5L316.6,102.6M421.8,160.9L437.5,155.8L449.6,152.9L463.1,160.9L438.9,170.5L421.8,160.9M504.2,100.0L505.5,97.7L506.0,97.4L506.1,98.5L506.5,99.0L507.3,98.9L508.0,99.4L508.5,100.1L508.7,99.8L508.8,98.3L509.5,97.7L510.6,97.7L511.5,97.1L512.4,97.1L513.3,97.7L513.7,98.1L514.1,99.0L514.5,98.9L514.5,97.8L514.2,97.1L513.1,95.4L512.8,95.6L512.1,95.6L511.7,94.8L511.9,93.7L512.6,93.5L514.5,94.6L515.7,96.1L516.5,96.7L517.5,96.9L518.5,99.1L517.3,101.5L508.6,107.1L507.9,106.6L507.4,105.9L506.8,105.8L506.3,105.8L505.6,105.7L505.1,104.3L504.9,102.5L504.4,101.0L504.2,100.0M447.0,253.8L451.7,239.2L450.9,232.4L449.4,230.7L450.8,229.7L477.3,205.8L478.9,206.0L480.4,207.3L483.8,208.3L484.9,207.9L485.6,206.9L486.1,205.9L486.7,205.5L494.3,207.4L496.5,208.2L498.6,208.1L501.2,206.0L503.3,202.2L504.0,197.8L503.6,193.4L502.2,189.3L500.4,187.4L498.0,186.1L496.0,184.6L495.1,182.2L496.2,179.5L498.9,178.1L502.2,177.7L503.8,177.7L504.7,178.8L506.0,180.1L517.2,185.9L519.5,188.8L524.0,196.8L524.8,197.4L527.2,199.0L527.7,200.0L527.7,202.0L527.8,203.5L528.8,208.8L530.9,212.9L533.8,216.0L537.0,217.2L540.2,218.8L542.2,222.8L545.1,231.0L545.8,227.8L547.7,228.6L549.9,231.2L551.2,233.6L539.2,233.0L535.3,234.5L533.8,239.4L533.4,242.5L532.5,245.0L532.0,247.4L532.7,250.2L535.8,255.5L535.4,257.8L531.4,259.0L531.4,260.4L532.1,261.7L532.1,262.6L531.4,264.2L535.2,266.2L536.7,266.7L538.9,266.6L540.8,265.9L543.5,263.4L544.4,262.9L551.2,254.0L552.2,252.4L552.9,250.8L554.0,249.6L556.2,249.0L558.3,249.5L560.2,252.1L561.8,252.8L563.6,252.9L565.0,253.3L565.6,254.1L563.6,258.3L562.5,262.7L560.7,266.0L556.3,267.3L550.0,268.0L539.1,270.4L532.7,269.7L526.5,268.3L520.9,267.5L515.3,267.8L496.4,272.8L490.5,275.7L486.3,280.6L486.2,280.8L484.8,278.8L481.2,276.8L477.9,270.7L476.3,269.3L472.2,268.8L469.2,268.1L466.1,267.9L462.0,269.3L456.3,272.6L452.6,273.8L450.9,272.4L450.1,269.4L448.6,266.0L448.0,262.8L449.7,260.4L447.0,253.8M589.2,237.0L592.6,235.8L598.0,233.8L599.7,232.8L602.4,232.6L609.6,234.7L613.1,236.6L615.2,239.8L615.1,243.0L612.9,243.9L606.7,242.5L604.2,241.6L602.0,241.1L597.9,241.0L595.0,240.4L589.8,238.3L589.2,237.0M561.5,222.5L561.8,222.4L561.9,222.3L570.6,222.8L574.9,224.9L576.5,224.3L577.8,223.9L580.2,224.0L580.4,224.1L580.6,224.3L581.9,225.9L583.2,226.6L584.2,226.0L584.3,225.2L584.5,224.4L585.9,224.3L587.5,224.8L589.8,225.4L592.6,226.5L592.8,227.3L592.9,227.7L590.5,228.9L589.5,229.4L588.6,230.5L587.5,232.3L585.7,234.1L584.5,234.3L581.9,234.9L580.5,234.6L576.9,233.7L573.1,232.4L569.8,232.1L566.4,230.7L563.2,228.1L561.8,225.7L561.9,224.2L561.6,223.2L561.5,222.5M547.8,212.1L548.4,211.4L550.0,210.3L551.8,210.4L559.3,212.9L560.3,213.8L561.7,214.4L563.2,214.8L563.2,216.7L558.4,221.7L557.5,225.2L558.6,228.1L559.9,230.3L559.6,231.8L556.4,233.4L554.5,233.5L552.7,230.7L551.6,229.7L549.5,225.9L549.2,223.7L550.1,220.6L550.4,217.1L549.7,214.7L547.8,212.1M536.0,201.2L538.9,202.0L541.9,203.4L544.9,205.5L546.1,206.8L547.1,206.8L548.9,207.1L549.4,207.8L547.4,210.0L545.3,210.7L541.4,208.1L536.7,203.4L536.0,201.2M486.2,280.8L486.3,280.6L490.5,275.7L496.4,272.8L515.3,267.8L520.9,267.5L526.5,268.3L532.7,269.7L539.1,270.4L550.0,268.0L556.3,267.3L560.7,266.0L562.5,262.7L563.6,258.3L565.6,254.1L565.8,254.3L566.0,255.9L567.1,256.1L573.6,257.8L575.9,259.1L578.8,261.2L581.2,263.7L582.2,266.0L590.2,273.1L592.1,274.3L593.8,272.6L597.6,264.9L598.3,262.3L600.2,261.5L604.4,262.6L608.6,264.3L610.7,265.5L611.4,268.8L610.9,272.2L609.4,274.2L607.1,273.1L605.0,275.9L603.8,278.0L602.1,283.2L598.8,289.9L598.3,291.6L598.9,294.5L601.5,298.6L603.1,310.5L603.2,313.7L600.7,336.0L599.6,338.7L594.5,342.2L593.3,344.9L593.9,348.1L594.7,350.0L594.5,351.4L592.1,353.3L593.0,354.4L594.5,358.2L592.4,358.9L589.4,361.1L587.3,361.9L585.0,362.1L579.2,361.9L574.3,360.1L570.1,356.0L564.9,348.1L565.3,346.1L564.7,345.9L563.4,346.3L561.8,346.7L559.1,343.6L555.4,341.9L553.8,339.1L552.6,335.5L548.9,328.7L548.9,325.1L549.7,321.4L550.0,317.6L548.8,313.0L546.6,311.0L543.5,309.7L540.0,307.4L544.6,307.3L548.2,305.9L550.8,303.3L552.6,299.8L554.5,300.8L557.4,303.8L558.7,304.8L560.5,305.5L561.5,305.4L562.5,305.0L564.3,304.8L566.6,304.2L567.1,302.8L567.2,300.9L568.0,299.2L569.9,298.3L571.8,298.7L573.5,299.5L574.8,299.8L577.8,298.4L580.5,295.8L582.6,292.5L583.4,289.0L581.9,284.4L578.2,283.3L569.9,284.6L566.6,284.0L561.1,281.4L558.1,280.8L555.9,282.3L554.5,285.8L553.6,289.7L552.6,292.2L548.3,296.8L545.3,298.9L541.0,300.0L539.4,300.9L538.3,301.1L537.2,300.7L535.6,299.0L534.5,298.6L533.6,299.3L531.7,302.5L530.1,303.6L529.5,303.9L528.5,304.6L527.7,304.8L526.7,302.2L525.2,299.8L527.2,299.0L528.7,297.7L529.0,296.5L527.1,296.0L522.4,296.2L521.3,296.7L522.2,297.8L522.6,299.3L522.7,301.1L519.0,297.6L520.7,293.6L523.7,289.6L522.8,288.9L521.4,289.5L519.6,289.6L517.4,290.2L516.5,291.5L516.1,293.1L515.3,294.6L514.0,296.4L513.9,297.2L513.3,297.3L510.9,297.2L507.9,296.6L505.9,296.0L504.7,295.3L499.8,289.5L497.6,287.6L494.1,285.7L492.2,285.1L490.7,284.7L489.3,284.1L487.5,282.6L486.2,280.8M423.6,474.2L424.0,470.4L424.9,466.0L426.3,462.3L428.0,460.7L430.0,460.3L430.9,459.1L431.1,457.4L431.1,455.2L431.5,452.7L432.5,450.8L433.7,449.1L434.7,447.0L434.5,440.0L435.6,436.6L438.5,438.0L439.4,435.5L440.7,433.6L442.6,432.3L445.4,431.8L446.6,430.9L446.0,428.8L443.5,425.4L446.0,423.7L448.4,422.7L449.8,421.1L449.7,417.7L443.5,417.5L439.4,417.8L436.0,419.1L436.1,417.8L435.9,412.2L436.1,411.7L436.5,411.4L441.5,404.5L442.1,402.0L442.8,396.5L445.4,387.2L446.0,382.9L445.6,380.0L444.6,378.5L442.8,377.4L440.4,375.3L438.5,353.8L439.0,351.6L440.3,351.1L442.1,351.7L443.9,352.8L446.6,354.0L451.8,354.9L454.6,355.7L456.3,356.9L457.7,358.3L459.3,359.3L461.0,359.7L460.8,359.9L460.9,360.7L457.7,360.1L458.1,362.9L460.9,369.6L459.9,371.0L457.7,372.6L455.6,374.7L454.6,377.9L455.6,380.2L457.7,378.9L460.9,374.6L461.4,374.5L463.2,374.4L463.9,374.1L464.3,373.3L464.2,371.5L464.5,370.9L464.1,370.7L465.1,368.6L466.4,366.5L467.1,366.5L468.4,365.2L471.5,364.9L475.0,365.3L477.5,366.5L483.3,372.3L486.1,374.6L489.3,376.0L495.5,376.0L496.4,376.8L498.5,379.8L500.0,381.4L501.6,384.9L503.8,388.3L506.7,389.9L506.7,391.2L504.6,391.4L503.2,392.4L502.7,394.1L502.9,396.4L509.0,393.1L511.7,392.8L512.8,395.7L513.6,396.9L515.4,397.2L517.5,397.2L519.0,397.5L521.0,398.8L522.5,400.3L523.9,402.0L535.3,421.7L540.0,426.7L539.1,418.5L540.3,415.6L544.4,418.4L550.0,424.1L552.5,423.8L554.5,422.4L556.1,421.9L557.4,424.1L557.4,422.9L559.1,426.6L568.6,441.9L569.8,442.7L572.5,443.6L573.6,444.5L574.3,446.1L576.0,452.2L577.0,453.9L584.6,463.5L586.4,466.6L587.3,469.7L584.3,467.8L580.6,462.1L577.2,459.7L577.9,461.7L578.6,463.0L581.1,465.9L579.0,467.6L579.7,469.7L583.4,474.9L587.9,484.3L588.5,486.9L588.5,491.3L587.4,496.3L587.3,498.3L588.0,501.2L589.5,504.9L590.4,508.6L589.7,511.5L587.2,512.0L584.8,508.8L581.1,501.3L578.8,498.8L572.7,493.6L567.5,491.6L563.6,487.2L557.5,485.1L554.8,482.6L551.2,477.3L548.9,478.6L545.6,477.9L538.9,474.9L534.7,476.9L530.8,474.8L527.6,471.5L525.2,469.7L526.0,467.4L527.1,465.7L528.9,464.8L531.4,464.8L529.0,459.7L528.0,461.4L527.7,462.1L526.5,462.1L525.0,459.9L522.8,457.4L520.4,455.4L515.8,453.3L514.2,450.7L514.6,448.5L517.8,448.1L513.9,446.9L510.3,447.2L507.7,446.6L505.7,439.3L503.4,436.2L497.9,430.5L495.3,426.5L494.1,425.4L488.9,423.2L487.5,422.3L484.3,420.9L480.0,421.4L475.8,422.7L473.2,424.1L471.1,426.5L465.6,434.5L463.9,439.3L462.5,441.7L460.7,443.6L458.9,444.5L456.9,444.7L455.9,445.5L454.6,448.1L444.6,459.9L429.3,474.1L425.4,476.5L423.6,474.2M501.4,344.1L501.6,341.7L502.9,341.7L504.5,342.6L505.3,340.1L505.9,336.5L506.7,334.1L508.3,334.1L510.4,335.9L513.5,339.7L522.4,345.0L524.0,345.5L523.8,346.8L523.3,347.4L521.5,348.1L524.0,348.1L526.1,348.7L527.8,350.0L529.0,351.9L528.1,355.1L529.5,358.8L531.6,362.4L532.7,365.2L533.3,368.1L535.8,374.1L537.8,383.8L538.3,384.7L539.3,385.6L539.4,387.6L538.9,391.8L540.0,395.5L540.2,397.8L539.5,398.8L538.0,398.2L536.6,396.7L535.6,394.9L535.2,393.1L534.4,391.3L529.0,386.1L502.0,345.8L501.4,344.1M386.4,257.6L386.5,255.4L389.0,253.8L392.1,253.5L394.5,252.2L395.1,247.6L397.2,248.2L399.6,249.4L403.7,252.3L405.5,254.1L407.2,256.1L410.0,260.4L413.6,268.0L417.9,271.5L418.6,272.4L419.2,274.6L421.7,279.2L422.3,281.4L422.8,281.9L425.5,287.7L428.5,290.5L433.0,293.5L437.5,295.0L441.0,293.4L443.9,295.0L445.1,296.8L445.8,298.8L447.2,301.1L448.4,310.4L461.8,325.0L464.5,332.9L458.2,328.3L446.0,311.2L442.1,307.1L439.6,305.5L432.9,304.1L430.0,302.3L416.4,290.2L415.0,287.7L414.2,287.4L411.1,284.0L410.6,283.2L409.1,282.6L408.5,281.3L408.1,279.6L407.5,278.2L403.0,275.3L391.8,272.6L387.6,268.0L386.4,257.6M582.0,151.7L583.8,149.6L588.5,147.0L593.1,143.0L596.7,137.6L599.4,131.2L600.7,124.0L599.2,113.3L600.1,110.6L601.9,107.4L601.6,104.1L599.1,97.0L598.3,93.8L598.3,92.2L599.2,91.3L600.8,89.9L601.9,88.2L601.4,86.5L599.8,83.9L599.8,81.0L600.8,78.1L602.1,75.6L604.4,78.6L607.0,77.9L610.7,74.3L612.3,73.4L613.7,73.0L614.9,73.2L616.3,74.0L620.0,77.5L623.0,81.5L625.3,85.9L626.8,90.8L627.5,98.5L629.2,99.0L630.7,100.3L633.0,103.5L631.7,104.9L632.5,106.2L632.8,106.7L633.0,107.6L634.3,107.6L636.9,102.6L642.0,105.0L652.9,113.8L652.9,115.2L650.3,116.8L647.8,118.9L650.3,120.2L651.4,122.5L652.0,125.2L652.9,127.8L649.4,129.2L647.8,129.2L649.1,131.2L649.4,132.8L648.9,138.1L648.0,142.0L647.8,143.9L651.0,149.1L651.2,152.1L647.2,153.5L643.5,153.3L641.6,153.5L640.8,155.0L640.4,158.5L637.6,169.8L637.8,172.5L635.1,170.6L632.7,166.8L630.4,163.9L628.1,164.9L625.8,164.2L622.8,164.8L619.8,166.2L617.6,168.0L616.3,170.7L614.9,174.3L613.4,177.6L611.3,179.0L608.1,177.7L598.3,168.7L592.9,164.6L589.7,163.5L585.9,163.5L586.6,161.0L586.0,158.4L584.6,156.0L582.8,154.0L582.0,151.7M421.8,160.9L437.5,155.8L449.6,152.9L463.1,160.9L438.9,170.5L421.8,160.9" />
        <path stroke="#00060c" fill="null" d="M-2.0,19.1L12.9,4.6L14.4,3.9L16.4,3.8L20.4,4.0L21.6,3.5L24.7,0.1L27.6,-2.0L151.9,-2.0L152.0,-1.6L152.7,5.1L154.7,12.3L156.1,15.4L158.3,18.3L166.0,25.7L167.8,28.9L168.0,31.5L167.2,37.9L168.0,39.2L171.4,42.5L172.2,44.2L171.9,47.2L170.9,50.0L169.4,52.2L167.2,53.8L167.2,55.1L169.6,57.1L176.0,66.7L188.2,75.6L200.8,88.4L204.2,91.1L231.6,101.8L257.7,107.6L257.9,102.6L255.9,99.1L248.9,92.2L252.3,91.2L268.8,95.7L269.7,95.3L270.0,92.9L269.3,89.7L270.0,88.8L272.5,88.3L272.5,87.1L268.3,85.9L261.3,77.6L258.3,75.6L253.5,73.8L249.4,69.6L246.5,64.1L245.2,58.9L247.1,60.3L247.5,61.1L247.8,62.8L248.9,62.8L249.0,58.5L251.1,55.9L257.7,52.5L259.9,53.6L260.5,50.5L260.6,46.1L261.3,43.5L263.4,44.1L264.0,47.7L263.5,52.2L262.6,55.1L264.0,56.8L264.4,59.0L264.5,61.4L265.1,64.0L264.8,64.7L265.1,65.5L266.3,66.7L267.2,66.7L267.9,65.9L268.5,64.8L268.8,64.0L269.7,66.1L270.0,68.3L270.0,73.0L273.4,71.5L276.3,69.1L278.3,65.7L278.7,61.4L278.0,60.2L275.4,56.5L275.0,55.1L275.6,52.8L276.8,51.5L277.9,51.6L278.7,53.8L280.0,53.8L280.2,52.0L280.1,50.6L279.5,49.5L278.7,48.7L282.1,48.8L283.9,47.6L283.9,45.5L281.8,42.9L282.0,41.4L284.7,35.5L286.1,33.3L287.1,35.8L288.7,35.1L290.3,32.6L291.0,29.6L293.7,30.9L296.1,29.6L298.5,27.4L300.9,25.7L303.1,25.5L305.2,26.5L309.6,29.6L308.8,28.7L307.1,25.7L311.2,25.1L319.8,28.8L324.4,29.6L324.0,32.1L325.1,34.0L326.7,34.3L328.3,32.1L328.9,34.9L330.5,36.8L332.2,37.1L333.2,34.7L338.3,35.2L340.6,35.9L337.7,31.2L337.1,26.9L338.7,24.8L341.9,27.1L343.1,25.7L344.4,28.7L346.2,31.3L348.7,31.7L351.8,28.2L352.7,29.4L353.6,30.3L354.8,30.7L357.6,31.1L357.7,31.6L357.6,32.4L358.0,33.3L360.8,36.6L362.2,37.1L364.8,37.2L370.0,38.2L373.6,40.7L379.1,47.4L379.3,48.4L379.1,49.7L379.0,50.8L379.7,51.3L382.1,51.4L383.0,51.7L384.0,52.5L388.3,58.9L390.3,60.5L397.0,68.0L398.7,70.5L400.5,69.4L402.5,70.1L404.2,71.9L405.0,74.3L404.5,77.2L403.1,79.5L402.1,82.1L402.5,85.9L406.2,89.7L410.7,92.4L411.3,92.2L411.8,95.0L411.3,103.5L412.5,108.5L412.4,110.0L411.4,111.7L410.1,112.2L408.8,112.6L407.5,113.8L406.6,116.0L405.4,123.3L405.0,125.4L405.5,131.9L408.6,135.6L412.6,138.3L416.1,141.9L417.5,141.9L421.3,139.9L425.6,139.7L435.4,140.6L437.2,140.2L442.8,138.0L444.7,136.8L451.1,129.4L452.1,127.2L452.5,125.9L453.2,124.8L453.5,123.6L452.3,121.2L450.2,114.4L447.3,110.3L447.2,107.6L453.2,103.2L454.0,102.4L455.4,101.3L456.4,98.9L457.1,95.9L457.2,93.5L455.3,95.5L453.0,101.2L451.5,102.4L449.0,102.4L447.3,102.1L439.0,96.9L436.9,94.7L436.0,91.5L437.7,90.1L440.9,88.9L442.5,87.6L439.7,85.9L443.4,84.4L443.9,82.3L442.1,77.5L443.8,76.6L447.5,77.8L453.4,80.6L453.4,79.5L452.6,78.9L450.9,76.8L456.1,77.1L457.2,76.8L457.2,75.5L455.7,72.3L456.5,71.6L458.9,72.7L460.4,75.4L462.0,82.0L459.0,82.8L458.4,85.0L459.2,87.1L460.2,87.7L463.5,84.6L465.0,83.6L467.1,83.2L466.2,84.4L464.5,88.3L466.4,87.5L467.1,87.1L468.2,88.3L467.5,91.7L471.0,96.8L469.5,99.7L470.8,101.5L471.6,103.3L472.0,105.4L472.0,107.6L473.2,107.6L474.2,105.2L475.6,103.4L476.8,101.1L476.9,97.3L480.5,98.3L482.9,99.4L484.5,101.3L485.6,104.9L494.0,104.1L507.3,109.3L519.7,111.7L525.2,102.4L529.2,109.3L534.9,115.4L541.9,120.4L555.0,126.1L555.4,126.7L555.6,127.3L556.2,127.8L558.4,128.5L562.8,128.6L564.9,129.2L566.1,130.4L568.6,135.7L571.7,138.6L572.4,140.6L571.1,143.3L568.0,140.8L567.0,139.6L566.0,138.1L564.9,138.1L564.7,138.9L563.7,140.6L561.0,139.3L557.9,138.6L551.9,138.1L550.3,139.7L547.7,143.2L544.5,146.7L540.7,148.3L537.4,147.5L530.8,144.1L520.9,142.5L517.1,142.6L515.3,143.9L513.7,145.4L509.9,144.0L505.7,141.8L502.9,140.6L499.7,141.8L497.8,144.2L492.1,159.7L491.7,163.5L493.3,163.9L494.0,164.5L493.6,165.5L493.1,166.4L492.9,167.3L493.0,169.3L493.5,171.5L494.7,172.0L496.3,171.4L497.9,170.0L503.9,177.8L504.7,178.8L506.0,180.1L517.2,185.9L519.5,188.8L524.0,196.8L524.8,197.4L527.2,199.0L527.7,200.0L527.7,202.0L527.8,203.5L528.8,208.8L530.9,212.9L533.8,216.0L537.0,217.2L540.2,218.8L542.2,222.8L545.1,231.0L545.8,227.8L547.7,228.6L549.9,231.2L551.2,233.6L539.2,233.0L535.3,234.5L533.8,239.4L533.4,242.5L532.5,245.0L532.0,247.4L532.7,250.2L535.8,255.5L535.4,257.8L531.4,259.0L531.4,260.4L532.1,261.7L532.1,262.6L531.4,264.2L535.2,266.2L536.7,266.7L538.9,266.6L540.8,265.9L543.5,263.4L544.4,262.9L551.2,254.0L552.2,252.4L552.9,250.8L554.0,249.6L556.2,249.0L558.3,249.5L560.2,252.1L561.8,252.8L563.6,252.9L565.0,253.3L565.8,254.3L566.0,255.9L567.1,256.1L573.6,257.8L575.9,259.1L578.8,261.2L581.2,263.7L582.2,266.0L590.2,273.1L592.1,274.3L593.8,272.6L597.6,264.9L598.3,262.3L600.2,261.5L604.4,262.6L608.6,264.3L610.7,265.5L611.4,268.8L610.9,272.2L609.4,274.2L607.1,273.1L605.0,275.9L603.8,278.0L602.1,283.2L598.8,289.9L598.3,291.6L598.9,294.5L601.5,298.6L603.1,310.5L603.2,313.7L600.7,336.0L599.6,338.7L594.5,342.2L593.3,344.9L593.9,348.1L594.7,350.0L594.5,351.4L592.1,353.3L593.0,354.4L594.5,358.2L592.4,358.9L589.4,361.1L587.3,361.9L585.0,362.1L579.2,361.9L574.3,360.1L570.1,356.0L564.9,348.1L565.3,346.1L564.7,345.9L563.4,346.3L561.8,346.7L559.1,343.6L555.4,341.9L553.8,339.1L552.6,335.5L548.9,328.7L548.9,325.1L549.7,321.4L550.0,317.6L548.8,313.0L546.6,311.0L543.5,309.7L540.0,307.4L544.6,307.3L548.2,305.9L550.8,303.3L552.6,299.8L554.5,300.8L557.4,303.8L558.7,304.8L560.5,305.5L561.5,305.4L562.5,305.0L564.3,304.8L566.6,304.2L567.1,302.8L567.2,300.9L568.0,299.2L569.9,298.3L571.8,298.7L573.5,299.5L574.8,299.8L577.8,298.4L580.5,295.8L582.6,292.5L583.4,289.0L581.9,284.4L578.2,283.3L569.9,284.6L566.6,284.0L561.1,281.4L558.1,280.8L555.9,282.3L554.5,285.8L553.6,289.7L552.6,292.2L548.3,296.8L545.3,298.9L541.0,300.0L539.4,300.9L538.3,301.1L537.2,300.7L535.6,299.0L534.5,298.6L533.6,299.3L531.7,302.5L530.1,303.6L529.5,303.9L528.5,304.6L527.7,304.8L526.7,302.2L525.2,299.8L527.2,299.0L528.7,297.7L529.0,296.5L527.1,296.0L522.4,296.2L521.3,296.7L522.2,297.8L522.6,299.3L522.7,301.1L519.0,297.6L520.7,293.6L523.7,289.6L522.8,288.9L521.4,289.5L519.6,289.6L517.4,290.2L516.5,291.5L516.1,293.1L515.3,294.6L514.0,296.4L513.9,297.2L513.3,297.3L510.9,297.2L507.9,296.6L505.9,296.0L504.7,295.3L499.8,289.5L497.6,287.6L494.1,285.7L492.2,285.1L490.7,284.7L489.3,284.1L487.5,282.6L484.8,278.8L481.2,276.8L477.9,270.7L476.3,269.3L472.2,268.8L469.2,268.1L466.1,267.9L462.0,269.3L456.3,272.6L452.6,273.8L450.9,272.4L450.1,269.4L448.6,266.0L448.0,262.8L449.7,260.4L447.0,253.8L451.7,239.2L450.9,232.4L448.0,229.0L441.3,224.3L438.5,220.9L437.7,219.2L436.7,216.3L436.0,214.6L431.1,209.4L432.2,204.3L430.5,198.0L427.1,192.7L423.0,190.4L417.9,189.0L408.3,182.9L403.2,181.5L400.1,181.1L396.0,179.4L393.2,179.0L391.5,178.1L387.1,173.9L375.8,165.9L373.5,164.9L371.1,163.5L365.6,156.9L363.0,154.6L371.7,147.0L362.9,137.0L358.4,133.3L352.9,130.5L352.9,131.6L351.8,130.5L352.9,129.2L355.2,129.1L354.4,127.5L351.9,125.5L349.4,124.0L342.3,122.6L340.6,121.5L338.5,123.5L336.1,123.8L333.8,122.6L332.0,120.2L332.3,119.4L333.6,118.5L334.5,117.3L333.8,115.8L328.3,110.3L326.1,108.9L323.7,108.0L321.4,107.6L320.7,106.3L320.2,103.9L319.2,102.3L317.0,103.5L316.3,101.7L313.9,99.0L313.4,97.9L312.8,97.4L309.0,102.4L298.8,101.7L294.4,100.2L291.0,97.3L290.4,99.8L291.8,102.8L294.2,105.2L296.6,106.2L297.3,107.6L306.1,120.4L307.9,123.7L307.7,126.0L306.6,128.7L306.9,132.6L308.4,139.4L304.4,138.5L303.5,142.0L304.6,150.3L305.7,155.0L308.5,159.0L315.2,165.5L328.2,173.4L330.7,176.3L330.1,179.4L325.9,177.3L318.3,171.4L319.3,174.3L324.0,181.7L332.0,191.1L334.0,194.3L335.7,198.0L337.4,205.7L338.1,212.6L338.1,220.2L338.5,222.3L339.2,223.7L340.1,224.8L340.6,226.0L341.0,229.9L340.9,232.1L340.6,233.6L339.6,234.3L337.9,234.9L336.4,235.6L335.7,236.8L333.8,238.8L329.7,241.2L325.1,243.1L322.1,243.8L319.0,241.8L307.1,231.7L307.5,227.9L309.4,221.4L309.6,218.4L306.4,207.8L288.5,183.9L288.1,182.7L287.8,180.3L287.2,179.0L283.7,175.6L282.5,174.0L277.5,171.9L276.3,169.3L273.4,166.1L262.5,166.1L262.6,163.5L259.4,162.4L253.3,162.0L250.8,160.4L250.1,158.9L249.4,155.7L248.4,154.0L246.9,152.2L237.2,136.3L232.6,131.0L226.6,126.6L225.5,130.2L222.8,129.3L219.7,126.8L217.3,125.4L213.8,125.5L213.2,125.2L206.7,119.1L204.4,117.8L202.2,117.1L200.1,116.8L198.2,116.1L194.5,112.9L192.4,111.5L190.4,110.4L184.5,108.8L181.9,106.0L179.9,102.6L177.1,99.7L175.6,99.7L168.8,97.3L166.0,95.9L164.8,98.5L161.7,100.5L161.1,103.0L159.7,104.0L151.1,106.2L150.1,107.0L147.4,110.0L145.8,110.1L142.7,109.3L141.8,109.4L139.4,111.0L134.3,112.9L130.9,115.3L129.6,115.9L128.2,116.2L125.2,116.4L124.3,116.6L122.6,117.8L117.1,123.8L113.3,128.1L114.6,141.1L113.8,145.8L115.6,145.9L116.7,146.1L118.9,147.0L113.5,152.8L112.7,154.0L105.3,152.2L102.7,152.1L99.3,154.0L88.9,161.9L85.4,165.6L82.6,164.6L80.0,163.0L79.2,162.4L74.3,160.3L72.0,159.8L68.7,159.7L67.1,159.2L65.6,158.2L63.7,157.3L60.7,157.2L54.9,158.5L52.0,159.6L49.5,161.1L47.7,160.4L43.6,159.6L42.0,158.5L41.1,156.9L41.7,155.9L42.8,154.8L43.4,152.8L43.8,148.2L44.5,144.9L44.6,141.9L42.2,135.1L41.5,134.4L37.9,132.0L35.6,131.0L33.3,130.5L31.5,131.1L17.4,147.3L16.0,148.3L14.6,147.2L13.7,145.1L13.4,142.9L14.2,141.9L15.7,141.0L16.6,138.8L17.2,136.7L17.9,135.7L20.3,135.4L21.6,134.6L22.1,133.0L22.1,130.5L19.2,127.4L18.5,126.6L18.5,124.4L19.4,120.5L19.7,118.3L19.6,115.3L19.1,112.2L18.0,109.5L16.0,107.6L12.7,106.5L-2.0,104.7L-2.0,19.1M189.3,503.9L189.4,503.4L189.7,502.0L191.6,499.4L193.7,497.2L195.0,496.3L195.7,494.7L196.1,491.0L196.2,487.2L195.6,485.1L196.2,482.5L197.1,480.9L198.7,480.1L201.2,479.9L202.5,479.1L204.9,475.7L206.1,474.9L207.3,474.6L208.3,473.6L209.2,473.5L210.7,474.1L211.6,475.3L212.3,476.5L213.0,477.3L219.4,479.2L221.2,480.4L225.4,485.9L228.9,489.1L232.8,491.8L237.1,493.9L257.1,498.3L263.7,500.9L270.0,505.3L274.0,508.9L276.5,509.9L283.9,510.6L285.9,511.6L287.5,514.0L232.0,514.0L231.0,512.1L226.6,510.5L221.0,510.3L214.3,509.0L208.1,506.5L205.1,505.6L201.2,505.3L194.4,505.5L191.3,505.1L189.3,503.9M292.2,375.6L296.1,371.8L302.7,370.0L323.2,370.1L330.0,371.6L332.1,372.6L333.1,373.7L334.2,377.6L335.3,380.0L336.7,382.4L340.0,386.8L339.9,389.3L336.9,402.6L334.9,404.8L332.0,407.3L328.8,409.3L326.4,410.1L325.5,409.6L322.7,405.8L321.2,404.7L317.4,403.7L315.8,402.6L311.4,395.0L308.3,391.4L304.0,389.9L299.8,389.4L296.4,387.9L293.8,385.5L292.2,382.2L292.2,375.6M626.8,360.1L627.3,357.9L628.6,355.7L630.4,354.0L632.5,353.4L633.9,354.1L642.1,360.5L643.0,360.7L644.8,360.7L649.4,358.6L651.0,358.2L652.0,358.5L656.6,360.7L659.5,361.7L670.9,361.9L671.6,362.1L673.6,363.4L674.0,363.9L674.4,364.6L675.2,364.3L676.2,363.6L677.0,363.3L681.2,363.7L685.1,364.5L700.1,365.8L734.2,363.2L735.9,362.6L737.7,361.3L739.2,358.7L738.2,357.0L736.5,355.4L735.8,353.3L735.8,351.9L739.1,353.0L741.5,355.1L743.5,357.2L745.1,358.2L747.5,357.1L750.6,355.2L753.3,354.6L754.4,357.5L756.2,357.3L760.0,358.9L763.3,360.9L763.7,361.9L764.8,362.2L765.7,362.8L767.1,363.3L769.3,363.3L770.7,362.7L772.8,361.4L774.7,360.0L775.5,358.8L776.2,354.9L777.8,354.1L783.0,355.7L784.7,355.4L786.5,354.7L788.2,354.3L789.7,355.0L794.0,359.5L803.0,365.2L807.3,369.0L807.6,372.1L809.6,374.2L813.5,376.5L815.0,378.5L817.1,383.3L818.4,384.9L821.3,387.4L817.9,389.3L814.7,393.5L813.8,398.0L817.6,401.4L816.4,402.2L815.7,403.3L815.2,405.4L815.0,406.5L820.6,403.3L822.6,402.6L822.2,404.3L822.3,405.5L822.1,406.6L821.3,407.7L823.3,408.5L825.1,407.8L828.7,405.1L827.6,408.6L829.4,409.4L836.2,409.0L839.6,410.7L846.0,415.5L848.6,415.3L849.6,417.3L853.5,422.3L855.4,427.3L855.3,429.4L852.3,427.9L850.8,429.0L846.6,429.8L844.8,430.5L846.4,431.1L847.7,431.9L848.8,432.9L849.8,434.2L844.8,435.4L842.6,436.3L841.2,438.0L840.8,441.5L842.7,442.4L848.6,441.9L848.2,442.5L847.7,443.9L847.4,444.5L849.0,445.8L851.3,448.2L853.1,450.7L852.9,452.7L846.8,457.8L845.3,459.7L843.1,463.7L839.8,467.9L838.7,471.0L838.4,474.6L838.6,478.7L838.9,479.7L841.2,485.1L840.8,490.7L841.2,492.6L842.2,493.9L846.8,498.3L847.4,500.0L846.8,501.7L845.6,502.6L840.8,500.9L839.0,504.2L839.5,507.4L843.0,505.9L845.2,506.1L846.9,509.7L848.0,514.0L768.1,514.0L767.9,509.6L766.0,506.0L762.9,503.6L758.8,502.7L755.7,503.7L748.2,508.0L745.1,509.0L738.7,505.3L728.0,489.8L720.9,487.5L720.9,486.2L722.1,486.3L723.4,486.2L721.6,485.3L720.9,485.1L723.4,479.9L724.2,480.5L725.1,480.9L726.1,481.4L727.1,482.4L726.3,478.7L723.7,476.9L721.0,476.7L718.1,479.9L714.9,479.5L713.3,477.8L716.1,476.0L715.1,474.4L713.9,473.6L712.6,473.7L711.0,474.9L710.7,469.9L710.1,467.1L709.2,465.3L700.2,455.8L693.1,452.9L685.9,451.2L680.3,451.9L675.0,449.1L666.5,443.2L658.0,433.0L654.1,429.3L654.6,428.9L654.7,428.8L655.2,427.9L650.9,425.4L648.0,420.2L639.2,389.9L627.3,362.6L626.8,360.1,M762.5,514.0L764.3,511.5L765.2,512.5L768.0,514.0L762.5,514.0M423.6,474.2L424.0,470.4L424.9,466.0L426.3,462.3L428.0,460.7L430.0,460.3L430.9,459.1L431.1,457.4L431.1,455.2L431.5,452.7L432.5,450.8L433.7,449.1L434.7,447.0L434.5,440.0L435.6,436.6L438.5,438.0L439.4,435.5L440.7,433.6L442.6,432.3L445.4,431.8L446.6,430.9L446.0,428.8L443.5,425.4L446.0,423.7L448.4,422.7L449.8,421.1L449.7,417.7L443.5,417.5L439.4,417.8L436.0,419.1L436.1,417.8L435.9,412.2L436.1,411.7L436.5,411.4L441.5,404.5L442.1,402.0L442.8,396.5L445.4,387.2L446.0,382.9L445.6,380.0L444.6,378.5L442.8,377.4L440.4,375.3L438.5,353.8L439.0,351.6L440.3,351.1L442.1,351.7L443.9,352.8L446.6,354.0L451.8,354.9L454.6,355.7L456.3,356.9L457.7,358.3L459.3,359.3L461.0,359.7L460.8,359.9L460.9,360.7L457.7,360.1L458.1,362.9L460.9,369.6L459.9,371.0L457.7,372.6L455.6,374.7L454.6,377.9L455.6,380.2L457.7,378.9L460.9,374.6L461.4,374.5L463.2,374.4L463.9,374.1L464.3,373.3L464.2,371.5L464.5,370.9L464.1,370.7L465.1,368.6L466.4,366.5L467.1,366.5L468.4,365.2L471.5,364.9L475.0,365.3L477.5,366.5L483.3,372.3L486.1,374.6L489.3,376.0L495.5,376.0L496.4,376.8L498.5,379.8L500.0,381.4L501.6,384.9L503.8,388.3L506.7,389.9L506.7,391.2L504.6,391.4L503.2,392.4L502.7,394.1L502.9,396.4L509.0,393.1L511.7,392.8L512.8,395.7L513.6,396.9L515.4,397.2L517.5,397.2L519.0,397.5L521.0,398.8L522.5,400.3L523.9,402.0L535.3,421.7L540.0,426.7L539.1,418.5L540.3,415.6L544.4,418.4L550.0,424.1L552.5,423.8L554.5,422.4L556.1,421.9L557.4,424.1L557.4,422.9L559.1,426.6L568.6,441.9L569.8,442.7L572.5,443.6L573.6,444.5L574.3,446.1L576.0,452.2L577.0,453.9L584.6,463.5L586.4,466.6L587.3,469.7L584.3,467.8L580.6,462.1L577.2,459.7L577.9,461.7L578.6,463.0L581.1,465.9L579.0,467.6L579.7,469.7L583.4,474.9L587.9,484.3L588.5,486.9L588.5,491.3L587.4,496.3L587.3,498.3L588.0,501.2L589.5,504.9L590.4,508.6L589.7,511.5L587.2,512.0L584.8,508.8L581.1,501.3L578.8,498.8L572.7,493.6L567.5,491.6L563.6,487.2L557.5,485.1L554.8,482.6L551.2,477.3L548.9,478.6L545.6,477.9L538.9,474.9L534.7,476.9L530.8,474.8L527.6,471.5L525.2,469.7L526.0,467.4L527.1,465.7L528.9,464.8L531.4,464.8L529.0,459.7L528.0,461.4L527.7,462.1L526.5,462.1L525.0,459.9L522.8,457.4L520.4,455.4L515.8,453.3L514.2,450.7L514.6,448.5L517.8,448.1L513.9,446.9L510.3,447.2L507.7,446.6L505.7,439.3L503.4,436.2L497.9,430.5L495.3,426.5L494.1,425.4L488.9,423.2L487.5,422.3L484.3,420.9L480.0,421.4L475.8,422.7L473.2,424.1L471.1,426.5L465.6,434.5L463.9,439.3L462.5,441.7L460.7,443.6L458.9,444.5L456.9,444.7L455.9,445.5L454.6,448.1L444.6,459.9L429.3,474.1L425.4,476.5L423.6,474.2M260.2,355.7L260.6,354.7L262.0,354.2L262.6,353.3L263.8,349.4L264.7,347.8L266.3,346.7L266.3,349.2L269.4,355.1L272.0,362.0L271.8,368.6L266.3,373.5L263.4,370.0L261.8,366.7L261.2,363.3L261.3,359.5L261.1,358.7L260.6,357.8L260.2,356.8L260.2,355.7M201.4,405.3L202.0,398.5L203.9,391.0L206.1,387.4L211.8,385.1L214.5,379.6L215.4,372.7L215.4,366.5L214.1,355.6L215.0,351.6L219.2,348.1L229.6,345.2L234.7,342.5L236.6,338.0L242.1,339.6L244.0,341.3L244.0,344.3L243.1,345.0L240.3,344.6L239.1,345.5L239.0,347.2L240.3,357.5L239.3,363.5L235.1,376.2L233.6,389.8L230.4,402.9L225.0,416.3L223.6,418.4L222.3,421.7L224.4,424.2L226.8,426.5L226.6,429.3L224.2,426.7L223.2,428.1L219.9,431.2L219.2,432.4L219.2,441.9L218.0,441.9L214.1,437.5L213.3,434.9L214.3,431.8L209.4,431.4L208.3,428.4L209.2,419.1L210.9,423.5L213.4,424.3L215.7,422.3L216.7,418.4L216.1,416.1L214.6,415.2L212.6,414.8L210.5,413.9L203.0,406.5L201.4,405.3M501.4,344.1L501.6,341.7L502.9,341.7L504.5,342.6L505.3,340.1L505.9,336.5L506.7,334.1L508.3,334.1L510.4,335.9L513.5,339.7L522.4,345.0L524.0,345.5L523.8,346.8L523.3,347.4L521.5,348.1L524.0,348.1L526.1,348.7L527.8,350.0L529.0,351.9L528.1,355.1L529.5,358.8L531.6,362.4L532.7,365.2L533.3,368.1L535.8,374.1L537.8,383.8L538.3,384.7L539.3,385.6L539.4,387.6L538.9,391.8L540.0,395.5L540.2,397.8L539.5,398.8L538.0,398.2L536.6,396.7L535.6,394.9L535.2,393.1L534.4,391.3L529.0,386.1L502.0,345.8L501.4,344.1M386.4,257.6L386.5,255.4L389.0,253.8L392.1,253.5L394.5,252.2L395.1,247.6L397.2,248.2L399.6,249.4L403.7,252.3L405.5,254.1L407.2,256.1L410.0,260.4L413.6,268.0L417.9,271.5L418.6,272.4L419.2,274.6L421.7,279.2L422.3,281.4L422.8,281.9L425.5,287.7L428.5,290.5L433.0,293.5L437.5,295.0L441.0,293.4L443.9,295.0L445.1,296.8L445.8,298.8L447.2,301.1L448.4,310.4L461.8,325.0L464.5,332.9L458.2,328.3L446.0,311.2L442.1,307.1L439.6,305.5L432.9,304.1L430.0,302.3L416.4,290.2L415.0,287.7L414.2,287.4L411.1,284.0L410.6,283.2L409.1,282.6L408.5,281.3L408.1,279.6L407.5,278.2L403.0,275.3L391.8,272.6L387.6,268.0L386.4,257.6M-2.0,186.9L-1.3,186.6L14.8,182.9L19.7,180.1L22.0,182.3L23.5,181.8L25.0,180.8L26.0,177.6L28.5,178.3L29.4,178.2L30.9,177.6L31.1,178.3L32.1,179.0L31.3,180.6L30.2,181.8L28.9,182.5L27.2,182.7L28.3,184.3L30.1,186.4L32.2,188.3L34.0,189.1L35.7,190.7L39.8,197.8L42.7,199.4L54.6,198.9L57.6,200.9L56.9,207.0L58.2,207.0L58.5,205.8L59.0,203.0L59.4,201.9L60.2,200.8L60.5,200.4L61.9,199.4L63.7,198.6L66.0,197.8L68.1,196.6L69.4,194.2L70.6,194.2L74.3,201.1L95.3,218.4L103.0,230.6L105.8,232.4L109.8,232.9L112.8,234.5L114.6,237.2L115.2,241.3L114.6,243.2L113.7,245.2L113.2,247.1L113.8,249.0L115.9,250.3L117.9,250.2L120.0,249.4L122.0,249.0L126.2,249.2L130.2,250.0L133.4,251.9L134.9,255.4L134.2,259.3L131.8,261.8L125.7,266.0L123.5,269.3L122.3,273.4L122.1,277.8L124.0,289.2L123.9,292.2L122.3,299.8L122.6,302.3L121.3,302.3L122.4,307.4L122.8,319.0L124.5,323.3L129.4,329.6L130.1,330.9L130.3,333.2L130.9,336.2L131.9,339.1L133.7,342.1L133.9,343.4L133.6,348.2L133.1,348.6L132.3,348.5L131.2,349.2L124.2,359.7L122.0,361.5L117.5,364.5L116.1,364.9L114.9,364.6L114.1,364.8L113.8,366.5L113.9,369.5L114.3,370.8L115.2,372.1L113.8,373.5L112.7,372.1L112.0,373.4L111.7,374.3L111.9,375.4L112.7,377.2L109.4,379.3L109.5,384.5L111.9,390.2L115.2,393.7L115.2,395.0L107.9,392.9L104.4,393.1L104.0,396.4L105.0,397.5L105.3,399.1L104.9,400.8L104.0,402.6L105.5,403.4L106.3,404.4L106.5,405.8L106.5,407.7L101.1,404.4L99.1,401.3L96.5,402.7L92.2,406.5L89.8,407.0L87.6,408.3L84.3,411.5L79.8,420.6L79.2,421.6L76.6,421.6L72.5,417.6L70.0,416.6L58.8,416.6L55.5,414.8L52.9,410.5L51.8,405.1L53.2,400.1L54.3,403.1L55.9,404.8L58.1,405.1L60.7,403.9L59.4,403.3L58.1,403.4L56.9,403.9L55.8,400.7L55.7,400.1L52.0,397.4L50.7,397.8L50.7,401.4L47.8,399.8L44.1,396.6L40.9,393.2L38.7,389.2L34.0,384.7L32.6,384.3L31.6,383.1L23.9,369.9L21.6,368.4L19.8,366.5L20.2,362.1L22.1,354.4L21.9,350.7L20.9,347.1L19.1,343.8L14.3,338.2L11.2,331.8L8.7,328.9L4.6,327.3L1.0,327.2L-1.6,326.3L-2.0,324.4L-2.0,186.9M182.1,210.7L182.8,206.3L182.7,205.0L182.1,202.3L182.2,192.4L182.7,189.8L184.0,188.1L188.8,179.3L189.3,177.6L189.7,172.4L190.2,171.0L192.8,170.5L195.4,173.0L199.3,179.0L200.2,177.9L202.2,176.0L203.0,174.9L205.8,177.8L210.0,178.8L213.8,177.6L215.4,173.8L217.7,175.4L219.4,177.0L220.0,178.9L219.2,181.5L221.9,180.5L223.9,181.5L224.6,183.5L222.9,185.2L223.7,186.0L225.6,187.3L226.6,187.7L229.3,185.9L233.2,187.0L236.6,189.7L237.8,192.9L237.2,193.8L235.9,194.1L234.1,194.2L234.0,195.5L234.1,198.7L234.8,200.3L238.1,202.7L239.1,204.4L237.5,209.9L227.0,220.7L222.9,226.0L224.6,230.0L223.0,233.3L217.3,238.1L214.5,238.7L211.5,236.5L209.0,233.8L207.4,232.4L205.4,231.5L199.3,226.0L197.8,225.6L194.7,225.4L193.2,224.8L191.3,223.3L188.2,218.4L182.7,212.6L182.1,210.7M582.0,151.7L583.8,149.6L588.5,147.0L593.1,143.0L596.7,137.6L599.4,131.2L600.7,124.0L599.2,113.3L600.1,110.6L601.9,107.4L601.6,104.1L599.1,97.0L598.3,93.8L598.3,92.2L599.2,91.3L600.8,89.9L601.9,88.2L601.4,86.5L599.8,83.9L599.8,81.0L600.8,78.1L602.1,75.6L604.4,78.6L607.0,77.9L610.7,74.3L612.3,73.4L613.7,73.0L614.9,73.2L616.3,74.0L620.0,77.5L623.0,81.5L625.3,85.9L626.8,90.8L627.5,98.5L629.2,99.0L630.7,100.3L633.0,103.5L631.7,104.9L632.5,106.2L632.8,106.7L633.0,107.6L634.3,107.6L636.9,102.6L642.0,105.0L652.9,113.8L652.9,115.2L650.3,116.8L647.8,118.9L650.3,120.2L651.4,122.5L652.0,125.2L652.9,127.8L649.4,129.2L647.8,129.2L649.1,131.2L649.4,132.8L648.9,138.1L648.0,142.0L647.8,143.9L651.0,149.1L651.2,152.1L647.2,153.5L643.5,153.3L641.6,153.5L640.8,155.0L640.4,158.5L637.6,169.8L637.8,172.5L635.1,170.6L632.7,166.8L630.4,163.9L628.1,164.9L625.8,164.2L622.8,164.8L619.8,166.2L617.6,168.0L616.3,170.7L614.9,174.3L613.4,177.6L611.3,179.0L608.1,177.7L598.3,168.7L592.9,164.6L589.7,163.5L585.9,163.5L586.6,161.0L586.0,158.4L584.6,156.0L582.8,154.0L582.0,151.7M201.9,51.3L202.5,48.9L203.9,47.4L205.8,46.8L208.1,47.3L209.2,48.0L210.0,48.9L211.4,50.9L234.7,71.0L242.8,76.6L247.0,80.2L248.9,84.5L247.8,88.9L244.4,88.9L240.4,86.6L233.6,80.8L221.8,73.0L214.5,66.4L212.4,65.4L209.5,63.5L206.0,59.3L203.1,54.5L201.9,51.3M99.3,443.9L100.2,441.9L99.8,440.6L99.8,440.1L101.4,440.9L108.4,449.7L109.6,452.6L110.3,455.7L109.8,458.6L107.6,460.7L104.4,461.1L102.2,459.2L100.8,456.2L100.2,453.3L100.3,451.9L101.4,448.1L100.9,446.2L99.8,445.0L99.3,443.9M158.2,288.1L159.5,285.9L161.6,285.3L164.1,285.9L164.8,285.9L166.2,287.2L167.2,289.3L166.8,291.1L165.8,292.1L165.2,292.2L164.7,292.6L165.0,293.3L165.5,294.0L164.7,294.7L163.5,294.6L162.7,293.7L162.1,293.9L161.3,293.7L160.0,292.0L158.8,290.9L158.4,290.1L158.2,288.1M42.8,170.7L44.2,170.6L45.5,171.1L47.1,170.7L49.0,169.8L50.5,170.1L51.5,171.6L52.0,176.3L51.0,177.6L48.0,176.6L42.8,171.8L42.8,170.7M109.6,490.8L110.1,489.1L111.9,486.9L115.0,485.7L116.9,485.6L120.7,485.9L127.3,487.9L130.1,489.6L128.5,491.3L124.5,493.1L120.5,493.2L117.4,492.4L115.5,491.6L114.5,491.4L113.6,491.0L112.9,490.2L112.0,490.4L110.5,491.2L109.6,490.8M603.8,451.5L605.0,449.2L607.2,447.3L610.2,446.5L614.6,446.3L618.6,447.7L618.8,449.5L615.2,450.0L613.2,451.5L609.6,454.0L607.0,454.3L604.5,453.2L603.8,451.5M42.1,414.8L45.8,409.8L50.9,411.9L52.7,416.0L54.0,422.2L54.9,423.7L55.6,424.4L55.9,424.9L58.2,428.9L58.7,430.9L58.0,431.7L56.5,432.0L54.6,431.2L52.9,430.0L51.3,429.1L50.1,427.3L49.4,424.7L47.5,422.2L44.3,420.4L42.1,414.8M601.5,374.2L603.1,374.6L606.3,376.9L609.3,381.2L610.2,386.0L607.8,387.6L604.3,384.6L602.2,380.3L601.5,376.3L601.5,374.2M589.2,237.0L592.6,235.8L598.0,233.8L599.7,232.8L602.4,232.6L609.6,234.7L613.1,236.6L615.2,239.8L615.1,243.0L612.9,243.9L606.7,242.5L604.2,241.6L602.0,241.1L597.9,241.0L595.0,240.4L589.8,238.3L589.2,237.0M561.5,222.5L561.8,222.4L561.9,222.3L570.6,222.8L574.9,224.9L576.5,224.3L577.8,223.9L580.2,224.0L580.4,224.1L580.6,224.3L581.9,225.9L583.2,226.6L584.2,226.0L584.3,225.2L584.5,224.4L585.9,224.3L587.5,224.8L589.8,225.4L592.6,226.5L592.8,227.3L592.9,227.7L590.5,228.9L589.5,229.4L588.6,230.5L587.5,232.3L585.7,234.1L584.5,234.3L581.9,234.9L580.5,234.6L576.9,233.7L573.1,232.4L569.8,232.1L566.4,230.7L563.2,228.1L561.8,225.7L561.9,224.2L561.6,223.2L561.5,222.5M547.8,212.1L548.4,211.4L550.0,210.3L551.8,210.4L559.3,212.9L560.3,213.8L561.7,214.4L563.2,214.8L563.2,216.7L558.4,221.7L557.5,225.2L558.6,228.1L559.9,230.3L559.6,231.8L556.4,233.4L554.5,233.5L552.7,230.7L551.6,229.7L549.5,225.9L549.2,223.7L550.1,220.6L550.4,217.1L549.7,214.7L547.8,212.1M536.0,201.2L538.9,202.0L541.9,203.4L544.9,205.5L546.1,206.8L547.1,206.8L548.9,207.1L549.4,207.8L547.4,210.0L545.3,210.7L541.4,208.1L536.7,203.4L536.0,201.2" />
      </g>
    </g>
  </svg>