<svg viewBox="0 0 1024 512" version="1.1" xmlns="http://www.w3.org/2000/svg">
    <!-- made with Jérôme Muffat-Méridol's SVG map generator at https://jmuffat.com/maps -->
    <clipPath id="clip"><rect x="0" y="0" width="1024" height="512" /></clipPath>
    <g clip-path="url(#clip)">
      <rect fill="#ffffff" id="background" width="1026" height="514" y="-1" x="-1" />
      <g stroke-width="0.49999999999999994" fill="none">
        <path stroke="#aaaaaa" fill="#3e5cc7" d="M575.1,200.6L609.8,171.3L679.2,112.3L691.5,99.7L723.3,54.4L763.2,53.8L762.0,55.1L761.2,56.9L760.8,58.6L760.7,62.7L760.2,63.6L756.8,66.1L755.4,69.0L755.6,71.2L758.0,77.1L759.2,74.3L759.4,72.9L760.7,72.9L759.4,79.9L753.0,92.6L754.0,97.7L757.4,94.6L760.7,92.2L760.1,95.1L755.3,103.3L755.2,104.6L755.6,107.6L755.3,108.8L754.3,109.3L751.2,109.7L750.2,110.0L744.9,117.0L738.3,122.3L732.3,128.6L731.6,129.1L730.9,129.6L730.3,130.7L729.9,132.3L730.0,133.8L730.3,135.1L730.3,136.1L727.5,140.6L719.2,145.8L715.7,149.9L714.5,148.4L718.3,143.0L720.3,139.3L721.1,135.4L722.5,132.7L731.7,126.4L733.0,123.2L734.0,118.6L735.6,114.5L741.6,111.0L743.2,107.3L742.1,103.9L736.8,103.3L732.9,105.0L731.0,107.8L730.3,111.3L730.3,114.9L729.0,118.1L725.8,119.9L718.5,122.3L707.4,128.3L704.6,129.2L697.6,130.2L690.7,132.0L688.4,133.9L686.1,136.1L683.4,138.1L677.6,139.5L675.4,140.7L673.3,141.5L671.8,141.0L670.1,140.1L668.4,140.8L655.4,151.9L654.3,154.0L647.3,162.2L637.8,167.2L634.9,169.7L632.9,173.0L631.4,177.1L630.1,185.6L630.4,190.4L633.5,197.4L634.2,201.3L636.3,203.1L640.8,203.5L645.3,204.8L647.3,208.8L646.2,211.7L638.1,221.2L641.3,221.9L642.9,222.7L644.7,223.9L637.4,228.1L634.1,230.7L632.7,234.1L631.7,237.9L629.3,240.9L619.0,249.6L617.5,252.0L615.9,264.9L614.7,268.6L613.0,271.8L605.7,281.3L602.4,280.5L600.2,279.5L598.7,280.5L597.1,285.5L596.6,294.4L598.9,302.8L603.3,309.7L609.0,314.1L609.5,314.4L609.5,314.4L608.0,314.7L604.5,314.4L602.5,315.6L601.3,318.1L600.5,321.7L600.0,321.9L599.1,322.1L598.2,322.5L597.7,323.8L597.9,324.5L598.7,324.5L599.5,324.1L599.9,323.8L601.3,328.5L601.5,330.3L599.6,335.4L595.5,340.1L592.2,344.8L592.3,350.1L591.0,350.1L589.7,350.0L588.4,349.8L587.2,349.4L582.2,344.1L580.2,341.1L580.1,337.8L583.2,329.2L583.2,325.3L581.9,319.7L587.6,290.5L594.1,269.0L594.6,262.0L593.2,254.5L575.1,200.6M459.0,399.9L459.5,399.0L460.7,397.9L461.8,396.7L469.3,379.6L471.1,376.9L476.7,373.3L490.9,368.5L495.5,363.5L496.6,362.0L499.9,360.3L501.3,358.9L501.7,357.4L501.1,356.2L500.1,355.5L499.6,355.3L501.0,354.4L504.2,353.6L505.4,352.8L507.0,350.1L512.3,333.9L512.5,330.6L511.9,327.3L511.2,326.3L509.0,324.1L508.2,322.7L508.3,320.0L509.3,317.1L511.7,311.9L538.4,304.7L546.3,304.0L555.2,307.0L572.2,319.5L581.9,319.7L583.2,325.3L583.2,329.2L580.1,337.8L580.2,341.1L582.2,344.1L587.2,349.4L588.5,356.2L589.5,377.9L583.0,377.7L578.9,381.3L575.3,386.0L570.4,388.9L563.3,390.4L559.7,395.8L555.8,400.7L553.4,403.9L548.5,403.4L547.4,404.9L546.0,405.1L544.5,405.2L534.9,402.3L531.4,402.9L529.7,405.8L525.4,407.7L523.3,408.6L521.7,412.4L517.4,414.1L514.7,411.4L510.6,411.4L514.7,417.8L515.0,419.7L511.0,416.9L508.6,415.2L507.6,416.7L505.8,414.2L504.9,411.8L503.3,410.6L494.3,406.9L493.6,405.8L493.6,404.5L493.0,403.4L491.0,402.9L472.0,402.3L460.1,400.2L459.0,399.9M400.5,329.7L400.9,327.1L402.3,324.8L404.5,322.2L408.8,321.8L413.2,318.9L420.8,311.8L424.6,309.9L438.3,305.2L442.5,304.5L446.6,304.8L465.1,303.4L471.9,301.7L475.2,301.3L476.0,301.9L476.8,303.1L478.2,304.1L480.6,304.1L480.2,308.1L481.3,310.9L483.3,312.9L486.1,314.6L487.7,315.3L491.1,315.8L492.7,316.8L493.2,318.0L493.1,321.4L493.9,322.7L497.1,322.9L500.9,321.3L503.9,318.6L505.7,313.8L507.5,313.0L509.8,312.6L511.7,311.9L509.3,317.1L508.3,320.0L508.2,322.7L509.0,324.1L511.2,326.3L511.9,327.3L512.5,330.6L512.3,333.9L507.0,350.1L505.4,352.8L504.2,353.6L501.0,354.4L499.6,355.3L500.1,355.5L501.1,356.2L501.7,357.4L501.3,358.9L499.9,360.3L496.6,362.0L495.5,363.5L490.9,368.5L476.7,373.3L471.1,376.9L469.3,379.6L461.8,396.7L460.7,397.9L459.5,399.0L459.0,399.9L457.4,399.4L454.8,398.3L452.9,396.6L452.1,394.1L452.3,387.3L451.9,384.0L450.8,381.2L450.5,387.6L450.8,389.3L450.2,390.0L448.2,392.0L447.4,390.7L446.9,390.6L445.5,392.0L447.8,378.8L447.0,375.6L444.0,375.2L442.3,379.0L441.6,387.9L437.6,385.7L436.2,388.3L436.2,390.3L433.9,388.4L427.0,384.2L424.2,381.3L422.8,377.8L421.5,370.4L419.8,367.5L414.6,360.0L413.5,356.9L413.3,353.3L413.5,350.1L413.2,347.0L411.3,343.8L408.2,341.0L405.2,339.1L402.7,336.8L401.0,333.0L400.5,329.7M429.7,326.9L440.8,320.7L453.8,320.2L453.8,332.7L445.3,335.3L437.7,329.0L429.7,326.9M377.9,409.7L381.5,406.9L383.7,406.2L382.3,404.7L378.2,402.2L378.8,400.0L380.4,398.2L382.2,396.6L383.5,394.9L384.7,395.1L385.6,394.5L388.4,395.2L392.9,390.6L397.1,387.3L401.7,385.3L407.8,384.7L412.5,382.9L416.3,378.6L418.8,372.9L419.8,367.5L421.5,370.4L422.8,377.8L424.2,381.3L427.0,384.2L433.9,388.4L436.2,390.3L436.3,398.1L434.5,410.9L435.0,415.0L442.5,423.6L443.3,425.9L442.3,428.1L441.9,431.1L445.5,445.2L446.3,454.2L444.5,461.9L439.9,467.0L432.5,468.3L430.7,467.8L429.3,467.1L427.9,466.6L425.8,466.8L425.2,467.7L424.9,469.1L423.9,470.4L421.1,471.0L420.4,470.4L419.9,468.9L419.0,467.5L410.2,464.9L408.6,464.1L404.8,459.2L403.8,453.7L404.7,441.8L404.0,435.0L401.9,431.3L394.1,426.0L391.9,427.2L389.9,427.4L388.4,426.5L387.5,424.8L386.2,424.8L380.0,415.8L377.9,409.7M371.5,379.7L385.0,369.1L398.6,373.2L418.8,372.9L416.3,378.6L412.5,382.9L407.8,384.7L401.7,385.3L397.1,387.3L392.9,390.6L388.4,395.2L385.6,394.5L385.8,394.3L386.7,392.7L387.5,390.6L384.3,390.3L382.8,389.8L382.1,388.6L381.9,386.4L381.2,385.4L379.9,385.2L377.6,385.2L375.6,383.8L373.6,381.1L371.5,379.7M305.7,207.6L310.0,206.6L310.9,203.4L309.9,195.9L310.5,196.0L316.0,196.3L320.9,195.8L325.2,193.9L332.9,185.7L337.5,186.2L347.3,191.4L350.0,191.8L355.4,191.6L357.9,192.0L360.2,193.9L361.3,197.1L362.4,203.4L366.0,210.9L376.0,225.7L378.8,233.3L363.9,260.1L358.9,274.8L362.7,287.4L368.8,291.8L383.7,297.4L390.5,301.3L395.0,305.8L398.5,311.0L404.5,322.2L402.3,324.8L400.9,327.1L400.5,329.7L401.0,333.0L402.7,336.8L405.2,339.1L408.2,341.0L411.3,343.8L413.2,347.0L413.5,350.1L413.3,353.3L413.5,356.9L414.6,360.0L419.8,367.5L418.8,372.9L398.6,373.2L385.0,369.1L371.5,379.7L369.0,382.4L370.0,387.1L369.2,394.1L367.3,400.6L365.0,404.1L362.4,404.3L358.9,403.5L355.8,402.2L354.5,400.9L353.5,398.6L348.6,396.8L346.6,394.9L348.2,394.2L349.2,393.3L349.9,392.2L350.6,390.6L349.7,391.0L346.6,392.0L342.2,377.1L340.8,369.5L342.2,351.4L341.4,343.4L334.7,314.8L332.9,312.9L331.7,312.1L331.6,310.1L332.2,306.6L332.2,302.1L331.5,300.5L327.5,294.5L324.3,287.9L322.3,284.8L311.4,274.0L309.7,270.3L310.3,268.6L313.1,266.7L313.7,265.6L313.6,263.8L313.4,262.4L312.4,259.5L316.0,261.8L319.9,261.0L323.0,257.8L324.3,253.3L324.0,251.9L323.0,250.4L322.0,249.1L321.0,248.6L320.5,247.6L320.0,245.4L319.2,243.0L317.6,241.5L317.3,242.4L316.3,244.4L312.8,236.7L312.4,234.1L312.9,231.9L315.4,226.7L316.3,223.9L315.8,218.1L312.5,215.2L308.4,212.6L305.7,207.6M452.0,192.4L473.1,187.2L479.0,187.3L481.8,189.1L484.0,191.8L487.5,197.7L489.8,198.1L492.6,195.2L495.2,191.2L496.7,188.4L499.8,179.1L501.4,176.2L503.2,174.3L504.9,173.1L506.5,171.6L508.1,168.9L509.4,160.6L507.7,152.2L501.8,136.0L506.4,131.8L513.0,129.5L520.1,128.7L526.3,129.0L542.0,132.6L550.2,135.9L555.9,139.9L559.2,146.2L560.5,153.2L561.2,167.7L563.6,176.5L571.9,192.2L575.1,200.6L593.2,254.5L594.6,262.0L594.1,269.0L587.6,290.5L581.9,319.7L572.2,319.5L555.2,307.0L546.3,304.0L538.4,304.7L511.7,311.9L509.8,312.6L507.5,313.0L505.7,313.8L503.9,318.6L500.9,321.3L497.1,322.9L493.9,322.7L493.1,321.4L493.2,318.0L492.7,316.8L491.1,315.8L487.7,315.3L486.1,314.6L483.3,312.9L481.3,310.9L480.2,308.1L480.6,304.1L481.8,298.3L480.8,295.6L478.5,293.8L475.7,290.9L474.5,287.9L474.2,284.8L474.7,281.4L476.6,273.3L476.6,270.9L475.5,265.5L475.3,258.6L475.0,256.2L474.3,253.7L473.2,251.1L472.3,248.5L472.2,245.8L473.6,242.8L476.1,239.8L478.0,236.8L478.1,233.9L475.9,232.7L468.0,232.3L465.2,231.7L458.7,224.6L454.9,214.0L452.0,192.4M358.9,274.8L363.9,260.1L378.8,233.3L390.2,227.4L395.1,223.1L400.1,212.5L403.3,208.2L407.3,205.6L411.7,206.1L420.3,210.6L422.9,212.4L425.7,213.0L428.8,211.6L434.5,207.6L439.5,202.7L442.4,196.2L444.4,189.0L446.9,182.2L448.5,184.4L449.8,187.0L452.0,192.4L454.9,214.0L458.7,224.6L465.2,231.7L468.0,232.3L475.9,232.7L478.1,233.9L478.0,236.8L476.1,239.8L473.6,242.8L472.2,245.8L472.3,248.5L473.2,251.1L474.3,253.7L475.0,256.2L475.3,258.6L475.5,265.5L476.6,270.9L476.6,273.3L474.7,281.4L474.2,284.8L474.5,287.9L475.7,290.9L478.5,293.8L480.8,295.6L481.8,298.3L480.6,304.1L478.2,304.1L476.8,303.1L476.0,301.9L475.2,301.3L471.9,301.7L465.1,303.4L446.6,304.8L442.5,304.5L438.3,305.2L424.6,309.9L420.8,311.8L413.2,318.9L408.8,321.8L404.5,322.2L398.5,311.0L395.0,305.8L390.5,301.3L383.7,297.4L368.8,291.8L362.7,287.4L358.9,274.8M429.7,326.9L440.8,320.7L453.8,320.2L453.8,332.7L445.3,335.3L437.7,329.0L429.7,326.9" />
<path stroke="#aaaaaa" fill="#ffffff" d="M587.2,349.4L588.4,349.8L589.7,350.0L591.0,350.1L592.3,350.1L592.2,344.8L595.5,340.1L599.6,335.4L601.5,330.3L601.3,328.5L599.9,323.8L599.5,324.1L598.7,324.5L597.9,324.5L597.7,323.8L598.2,322.5L599.1,322.1L600.0,321.9L600.5,321.7L601.3,318.1L602.5,315.6L604.5,314.4L608.0,314.7L609.5,314.4L609.5,314.4L613.8,316.8L616.3,319.5L617.5,323.3L621.5,343.3L622.8,345.5L625.2,347.7L631.4,357.9L632.7,361.3L633.5,366.6L635.6,371.8L638.6,376.8L642.0,381.2L641.0,381.7L639.1,383.3L638.1,383.9L646.0,393.4L647.3,395.5L648.7,397.2L660.8,406.7L663.2,409.4L663.4,411.6L659.8,412.4L652.8,412.7L648.6,413.5L644.7,415.0L641.8,417.6L640.7,420.7L640.7,429.4L641.2,432.9L648.2,456.9L649.0,464.1L651.1,471.8L652.6,475.0L655.0,478.1L663.2,486.0L665.1,489.4L665.3,492.1L664.5,499.0L665.3,500.4L668.9,503.8L669.7,505.7L669.4,508.8L668.4,511.8L666.9,514.0L636.2,514.0L638.1,511.0L639.2,505.0L638.7,498.7L637.3,492.4L624.2,461.0L619.2,451.6L613.4,442.8L612.3,441.1L595.6,414.9L591.9,406.2L590.2,397.1L589.5,377.9L588.5,356.2L587.2,349.4,M763.4,514.0L763.7,512.4L763.8,507.7L764.5,504.9L766.8,505.5L767.4,509.4L766.9,514.0L763.4,514.0M701.4,513.2L702.0,510.7L703.5,509.1L705.5,508.4L708.0,509.0L709.2,509.7L710.0,510.7L711.5,512.8L712.8,514.0L701.7,514.0L701.4,513.2M736.3,388.1L736.4,386.9L739.6,387.9L740.1,387.2L742.2,385.2L742.7,387.9L744.2,389.0L746.3,388.8L748.8,387.9L755.3,387.9L754.0,389.1L753.2,390.7L753.1,392.7L754.0,394.9L755.8,396.3L757.9,396.6L761.4,396.1L763.9,398.0L765.6,402.2L765.5,406.4L762.7,408.3L762.6,407.4L747.5,396.1L742.2,395.2L739.4,394.3L738.3,392.7L737.5,390.5L736.3,388.1M681.2,366.6L682.7,353.4L684.0,348.8L686.1,346.8L691.9,350.3L695.7,350.9L697.3,347.5L698.8,345.8L702.2,345.4L710.2,346.4L713.2,348.3L714.9,347.3L717.1,348.1L718.3,350.4L717.1,353.7L721.7,354.0L725.4,355.9L727.2,359.2L726.3,363.4L722.2,358.3L720.0,357.1L717.1,357.8L715.2,359.8L714.7,362.0L715.4,363.1L717.1,362.0L718.6,366.8L718.6,369.2L716.8,370.7L710.7,374.6L710.0,375.2L710.2,376.2L710.6,383.3L711.0,385.3L711.9,387.9L715.4,387.4L717.8,390.8L719.2,395.8L721.1,408.3L720.7,411.1L716.9,420.8L713.2,424.1L708.6,426.6L704.6,427.5L700.1,425.7L698.5,421.3L698.8,416.0L699.9,411.2L703.6,410.4L703.4,402.6L700.6,393.6L696.7,389.3L693.7,388.4L692.8,386.0L693.4,379.0L692.5,376.9L688.3,370.4L686.8,368.7L683.7,367.7L681.8,367.7L681.2,366.6M777.0,415.8L781.8,413.1L786.2,411.5L789.3,409.9L792.5,409.1L795.3,410.4L796.6,411.6L796.8,414.5L792.6,418.4L788.2,419.3L784.2,419.6L777.6,418.8L777.0,415.8M780.6,514.0L781.1,513.4L782.3,513.5L782.4,514.0L780.6,514.0,M783.1,510.5L786.7,510.5L788.6,509.3L788.6,507.0L786.4,504.3L786.6,502.7L789.5,496.4L790.9,494.1L792.0,496.8L793.8,496.0L795.5,493.3L796.2,490.1L799.1,491.5L801.7,490.2L804.1,487.8L806.7,486.0L809.1,485.8L811.3,486.8L816.0,490.1L815.2,489.1L813.3,486.0L817.7,485.4L826.8,489.2L831.8,490.1L831.3,492.8L832.5,494.8L834.2,495.1L835.9,492.8L836.5,495.8L838.2,497.8L840.1,498.1L841.1,495.6L846.6,496.1L849.0,496.8L845.9,491.9L845.3,487.2L846.9,485.0L850.3,487.4L851.6,486.0L853.0,489.2L855.0,491.9L857.6,492.4L860.9,488.7L861.9,489.9L862.9,490.8L864.1,491.3L867.0,491.7L867.2,492.3L867.0,493.1L867.5,494.1L870.5,497.6L871.9,498.2L874.8,498.3L880.3,499.3L884.1,502.0L890.0,509.1L890.2,510.2L889.9,511.5L889.9,512.7L890.6,513.2L893.1,513.3L894.1,513.7L894.5,514.0L784.7,514.0L784.7,514.0L784.6,512.5L784.0,511.3L783.1,510.5M444.7,514.0L445.9,511.4L446.1,511.2L446.1,511.2L448.9,513.0L451.2,513.0L453.3,512.1L456.5,511.7L459.0,512.5L461.4,514.0L444.7,514.0M446.1,511.2L449.1,507.6L450.8,504.3L452.0,501.1L455.0,499.6L462.7,498.3L465.5,497.2L468.5,495.4L470.8,493.2L471.8,490.8L472.8,489.7L477.5,487.7L479.1,486.7L483.2,480.1L500.2,463.5L501.8,462.8L503.9,462.7L508.1,462.9L509.5,462.4L512.8,458.7L516.1,456.3L518.5,459.9L519.0,465.5L521.4,467.2L526.2,475.0L526.4,475.8L527.0,477.7L526.5,483.3L526.4,487.9L526.5,489.5L528.4,490.5L530.6,490.1L533.0,489.5L535.6,489.6L538.1,491.9L537.1,495.2L534.7,499.1L532.7,503.4L534.8,506.8L531.8,514.0L461.4,514.0L459.0,512.5L456.5,511.7L453.3,512.1L451.2,513.0L448.9,513.0L446.1,511.2L446.1,511.2M516.1,456.3L518.0,455.0L518.6,454.1L521.2,457.4L523.2,458.3L523.4,459.6L525.3,461.2L525.8,463.6L527.9,465.0L528.5,466.7L530.0,467.5L529.7,468.7L529.8,469.9L527.9,472.3L527.4,474.8L526.4,475.8L526.2,475.0L521.4,467.2L519.0,465.5L518.5,459.9L516.1,456.3M518.6,454.1L519.9,452.3L520.7,448.6L524.8,449.0L524.6,451.8L525.1,453.4L527.8,453.0L529.9,454.2L532.3,453.9L534.7,454.9L534.4,462.3L534.4,465.4L530.0,467.5L528.5,466.7L527.9,465.0L525.8,463.6L525.3,461.2L523.4,459.6L523.2,458.3L521.2,457.4L518.6,454.1M519.9,443.9L524.9,443.9L525.4,445.5L527.0,446.1L527.2,447.9L528.0,449.4L529.9,449.9L532.3,453.9L529.9,454.2L527.8,453.0L525.1,453.4L524.6,451.8L524.8,449.0L520.7,448.6L519.9,443.9M513.6,429.9L519.2,429.8L521.1,429.7L522.0,429.4L523.9,430.0L523.5,431.8L529.4,436.0L530.9,437.7L528.8,440.4L524.9,443.9L519.9,443.9L515.8,437.1L514.1,432.9L513.6,429.9M507.6,416.7L508.6,415.2L511.0,416.9L510.0,418.0L511.5,419.7L513.1,421.0L515.1,424.8L515.8,426.8L517.0,426.9L517.6,428.2L519.2,429.8L513.6,429.9L512.7,424.8L511.5,422.0L507.6,416.7M284.2,115.4L284.7,112.7L288.2,99.9L289.3,91.6L291.0,87.7L293.1,84.5L295.2,82.5L296.1,82.4L298.2,82.7L299.1,82.5L302.3,80.2L303.2,79.8L306.3,78.9L310.4,78.5L315.2,79.8L317.0,83.0L317.0,87.0L312.4,105.9L314.9,107.6L323.6,109.8L325.5,110.8L326.7,112.4L332.2,118.4L334.2,119.7L338.4,119.6L340.9,119.9L343.1,121.5L346.6,125.2L348.1,124.7L348.8,125.4L350.6,138.2L351.6,142.2L354.2,145.0L358.0,146.9L366.9,149.5L371.4,149.6L375.5,148.7L378.9,146.4L380.8,145.7L388.3,159.6L396.8,157.4L408.7,147.7L407.4,141.7L401.5,134.4L403.3,131.4L404.1,129.3L407.8,125.3L408.6,123.0L408.6,114.9L408.5,114.2L411.8,114.6L423.7,115.4L429.2,114.0L432.5,109.7L438.2,110.9L454.8,117.7L460.3,118.7L465.8,118.3L476.8,116.0L494.2,121.2L497.5,123.4L499.5,127.4L501.8,136.0L507.7,152.2L509.4,160.6L508.1,168.9L506.5,171.6L504.9,173.1L503.2,174.3L501.4,176.2L499.8,179.1L496.7,188.4L495.2,191.2L492.6,195.2L489.8,198.1L487.5,197.7L484.0,191.8L481.8,189.1L479.0,187.3L473.1,187.2L452.0,192.4L449.8,187.0L448.5,184.4L446.9,182.2L444.4,189.0L442.4,196.2L439.5,202.7L434.5,207.6L428.8,211.6L425.7,213.0L422.9,212.4L420.3,210.6L411.7,206.1L407.3,205.6L403.3,208.2L400.1,212.5L395.1,223.1L390.2,227.4L378.8,233.3L376.0,225.7L366.0,210.9L362.4,203.4L361.3,197.1L360.2,193.9L357.9,192.0L355.4,191.6L350.0,191.8L347.3,191.4L337.5,186.2L332.9,185.7L325.2,193.9L320.9,195.8L316.0,196.3L310.5,196.0L309.9,195.9L309.7,195.0L310.4,191.6L311.3,188.7L311.7,185.5L311.1,181.4L308.0,173.2L305.7,169.2L303.2,166.3L298.2,165.0L295.2,167.8L292.8,170.8L289.9,170.4L289.3,171.2L287.2,173.2L284.3,167.2L284.7,144.3L285.1,141.0L287.9,132.5L288.6,128.5L288.0,126.7L285.3,123.7L284.7,121.7L284.2,115.4M316.3,95.3L317.3,93.4L320.3,90.2L322.3,89.6L323.8,89.1L324.1,88.3L324.5,87.2L326.1,85.9L328.2,86.3L329.6,87.3L330.3,88.5L330.7,89.9L332.3,93.7L332.2,102.3L333.3,105.1L333.6,107.8L332.3,109.7L329.9,110.1L327.6,108.2L326.7,106.6L322.9,103.6L319.1,98.4L316.9,97.0L316.3,95.3M380.8,145.7L387.5,145.0L390.3,147.2L388.8,152.7L391.2,150.7L393.4,146.4L395.5,144.3L396.8,145.2L399.1,145.6L401.2,145.0L401.9,143.0L400.7,141.5L398.2,142.1L395.6,143.1L394.1,143.0L394.6,140.2L401.5,134.4L407.4,141.7L408.7,147.7L396.8,157.4L388.3,159.6L380.8,145.7M384.4,33.5L386.2,31.7L386.2,32.5L386.8,32.9L388.1,33.1L390.3,33.1L390.3,31.7L389.3,29.2L389.5,24.8L390.5,20.3L394.0,13.2L393.5,9.0L392.1,4.6L391.3,0.1L391.5,-2.0L436.1,-2.0L437.1,0.8L437.0,9.1L436.5,12.7L436.7,14.1L437.8,16.7L439.3,18.8L445.8,25.3L430.2,42.6L424.2,52.7L422.1,63.2L425.3,87.2L428.3,99.3L432.5,109.7L429.2,114.0L423.7,115.4L411.8,114.6L408.5,114.2L407.7,110.3L405.4,105.7L399.3,97.7L399.3,101.8L398.3,100.2L397.1,98.9L396.0,97.6L391.3,64.7L388.8,57.2L390.3,46.9L388.6,42.1L385.9,37.3L384.4,33.5M436.1,-2.0L452.4,-2.0L450.3,17.0L445.8,25.3L439.3,18.8L437.8,16.7L436.7,14.1L436.5,12.7L437.0,9.1L437.1,0.8L436.1,-2.0M624.8,-2.0L796.7,-2.0L787.9,13.1L786.3,18.8L782.6,27.3L781.2,29.6L778.7,32.6L773.9,42.8L771.2,46.5L764.8,51.9L763.2,53.8L723.3,54.4L671.0,76.6L668.4,76.9L665.7,75.2L633.3,33.7L639.7,27.1L640.7,13.0L624.8,-2.0M598.7,16.9L615.3,11.2L620.6,19.8L617.6,29.9L613.3,30.0L605.9,28.7L600.6,25.6L600.0,19.3L598.7,16.9M526.4,475.8L527.4,474.8L527.9,472.3L529.8,469.9L529.7,468.7L530.0,467.5L534.4,465.4L534.4,462.3L536.0,461.2L537.7,461.4L549.6,464.4L551.3,477.6L536.6,478.2L535.5,479.4L534.6,479.5L533.8,479.1L531.2,480.6L529.0,482.5L526.5,483.3L527.0,477.7L526.4,475.8M525.4,407.7L529.7,405.8L531.4,402.9L534.9,402.3L544.5,405.2L546.0,405.1L545.4,406.9L543.4,407.4L542.6,409.0L540.8,410.0L536.3,410.3L533.4,410.6L530.7,412.5L528.7,413.9L528.6,416.6L527.9,416.0L526.9,416.0L525.8,414.9L526.0,412.8L527.0,412.6L527.3,410.6L527.1,409.5L525.4,407.7M517.6,428.2L518.1,427.2L518.2,425.4L519.9,425.0L523.6,424.8L525.3,423.4L524.5,422.6L525.7,420.9L527.2,420.7L528.4,419.8L530.5,419.7L528.1,422.2L525.5,425.5L524.0,428.3L523.9,430.0L522.0,429.4L521.1,429.7L519.2,429.8L517.6,428.2M510.0,418.0L511.0,416.9L515.0,419.7L514.7,417.8L516.6,418.4L517.7,420.7L518.5,422.1L520.1,422.3L522.5,423.5L524.5,422.6L525.3,423.4L523.6,424.8L519.9,425.0L518.2,425.4L518.1,427.2L517.6,428.2L517.0,426.9L515.8,426.8L515.1,424.8L513.1,421.0L511.5,419.7L510.0,418.0M510.6,411.4L514.7,411.4L517.4,414.1L521.7,412.4L523.3,408.6L525.4,407.7L527.1,409.5L527.3,410.6L527.0,412.6L526.0,412.8L525.8,414.9L526.9,416.0L527.9,416.0L528.6,416.6L528.6,417.8L530.9,418.5L530.5,419.7L528.4,419.8L527.2,420.7L525.7,420.9L524.5,422.6L522.5,423.5L520.1,422.3L518.5,422.1L517.7,420.7L516.6,418.4L514.7,417.8L510.6,411.4M523.5,431.8L523.9,430.0L524.0,428.3L525.5,425.5L528.1,422.2L530.5,419.7L530.9,418.5L528.6,417.8L528.6,416.6L528.7,413.9L530.7,412.5L533.4,410.6L536.3,410.3L540.8,410.0L542.6,409.0L543.4,407.4L545.4,406.9L546.0,405.1L547.4,404.9L548.5,403.4L553.4,403.9L551.3,407.1L550.1,407.9L550.0,410.4L551.8,411.8L548.8,417.8L548.0,422.8L546.5,423.5L545.6,423.9L543.5,426.6L542.0,426.6L542.6,428.2L541.8,429.5L540.7,431.9L541.4,433.7L543.6,436.0L542.7,436.3L542.1,438.5L540.0,437.9L537.4,438.7L537.4,436.7L537.1,435.5L536.0,435.6L535.6,435.0L533.5,434.9L533.1,435.4L532.3,434.8L530.4,434.1L529.4,436.0L523.5,431.8M526.4,487.9L526.5,483.3L529.0,482.5L531.2,480.6L533.8,479.1L534.6,479.5L535.5,479.4L536.6,478.2L551.3,477.6L549.6,464.4L547.8,450.4L548.8,450.0L550.5,449.9L552.8,451.4L556.8,454.9L563.2,471.2L565.1,478.4L567.3,491.2L570.3,494.7L572.1,491.8L572.7,487.8L574.2,485.2L572.4,483.1L569.4,476.4L568.8,468.9L568.8,461.7L571.2,454.8L573.9,452.5L577.1,453.5L578.7,457.5L580.3,458.5L582.0,459.2L584.0,460.6L585.9,462.1L587.2,464.2L588.0,466.7L588.7,471.9L588.0,477.2L585.4,486.2L582.6,491.2L583.2,496.9L590.4,491.2L598.4,486.1L595.2,481.5L595.8,475.8L592.9,462.0L594.3,455.1L597.9,448.9L606.0,444.1L612.3,441.1L613.4,442.8L619.2,451.6L624.2,461.0L637.3,492.4L638.7,498.7L639.2,505.0L638.1,511.0L636.2,514.0L531.8,514.0L534.8,506.8L532.7,503.4L534.7,499.1L537.1,495.2L538.1,491.9L535.6,489.6L533.0,489.5L530.6,490.1L528.4,490.5L526.5,489.5L526.4,487.9M546.5,445.7L547.6,444.0L546.6,442.2L547.5,440.5L547.9,436.5L546.5,433.6L547.2,431.2L548.9,430.0L552.0,430.5L552.9,426.4L552.5,424.4L548.0,422.8L548.8,417.8L551.8,411.8L550.0,410.4L550.1,407.9L551.3,407.1L553.4,403.9L555.8,400.7L559.7,395.8L563.3,390.4L570.4,388.9L575.3,386.0L578.9,381.3L583.0,377.7L589.5,377.9L590.2,397.1L591.9,406.2L595.6,414.9L612.3,441.1L606.0,444.1L597.9,448.9L594.3,455.1L592.9,462.0L595.8,475.8L595.2,481.5L598.4,486.1L590.4,491.2L583.2,496.9L582.6,491.2L585.4,486.2L588.0,477.2L588.7,471.9L588.0,466.7L587.2,464.2L585.9,462.1L584.0,460.6L582.0,459.2L580.3,458.5L578.7,457.5L577.1,453.5L573.9,452.5L571.2,454.8L568.8,461.7L568.8,468.9L569.4,476.4L572.4,483.1L574.2,485.2L572.7,487.8L572.1,491.8L570.3,494.7L567.3,491.2L565.1,478.4L563.2,471.2L556.8,454.9L552.8,451.4L550.5,449.9L548.8,450.0L547.8,450.4L546.5,445.7M529.9,449.9L531.7,448.9L534.4,447.8L534.7,446.5L533.6,445.5L533.7,444.5L535.4,444.8L536.3,443.9L537.7,445.1L536.7,446.7L536.8,447.6L537.1,449.1L538.0,449.3L538.6,448.4L540.0,448.2L540.4,447.1L541.3,446.8L541.9,447.2L544.0,447.1L544.7,447.2L547.8,450.4L549.6,464.4L537.7,461.4L536.0,461.2L534.4,462.3L534.7,454.9L532.3,453.9L529.9,449.9M540.7,431.9L541.8,429.5L542.6,428.2L542.0,426.6L543.5,426.6L545.6,423.9L546.5,423.5L548.0,422.8L552.5,424.4L552.9,426.4L552.0,430.5L548.9,430.0L547.2,431.2L546.5,433.6L545.6,433.1L543.9,432.7L542.3,432.4L541.4,433.7L540.7,431.9M536.1,442.5L537.0,441.2L537.7,439.3L537.4,438.7L540.0,437.9L542.1,438.5L542.7,436.3L543.6,436.0L541.4,433.7L542.3,432.4L543.9,432.7L545.6,433.1L546.5,433.6L547.9,436.5L547.5,440.5L546.6,442.2L547.6,444.0L546.5,445.7L547.8,450.4L544.7,447.2L544.0,447.1L541.9,447.2L541.3,446.8L541.2,445.9L540.3,445.5L539.2,445.8L538.8,445.1L539.0,444.0L536.1,442.5M579.0,104.1L580.0,102.4L602.8,89.2L604.8,86.8L605.8,83.1L606.5,75.5L602.8,75.7L598.6,74.6L594.9,72.5L592.5,69.3L592.5,66.6L600.6,25.6L605.9,28.7L613.3,30.0L617.6,29.9L627.7,29.9L633.3,33.7L665.7,75.2L668.4,76.9L671.0,76.6L723.3,54.4L691.5,99.7L679.2,112.3L609.8,171.3L588.3,140.9L585.6,134.9L583.6,128.5L579.0,104.1M588.2,2.9L589.0,0.8L589.4,-0.2L589.3,-0.5L590.3,-1.2L591.0,-1.2L591.4,-1.0L591.7,-0.9L594.0,-1.0L595.2,-1.6L595.3,-2.0L624.8,-2.0L640.7,13.0L639.7,27.1L633.3,33.7L627.7,29.9L617.6,29.9L620.6,19.8L615.3,11.2L598.7,16.9L596.8,13.2L588.2,2.9M476.4,110.0L477.8,103.7L480.8,97.9L484.9,93.6L488.2,92.2L492.9,92.6L496.1,91.0L499.5,86.0L502.8,78.0L505.2,69.7L505.7,63.7L504.8,56.8L504.9,36.4L569.3,25.2L577.6,22.8L579.7,20.8L581.9,16.6L582.3,16.6L584.6,14.8L585.4,14.1L585.9,13.1L586.8,10.2L588.6,7.3L588.8,5.6L588.5,4.0L588.2,2.9L596.8,13.2L598.7,16.9L600.0,19.3L600.6,25.6L592.5,66.6L592.5,69.3L594.9,72.5L598.6,74.6L602.8,75.7L606.5,75.5L605.8,83.1L604.8,86.8L602.8,89.2L580.0,102.4L579.0,104.1L583.6,128.5L585.6,134.9L588.3,140.9L609.8,171.3L575.1,200.6L571.9,192.2L563.6,176.5L561.2,167.7L560.5,153.2L559.2,146.2L555.9,139.9L550.2,135.9L542.0,132.6L526.3,129.0L520.1,128.7L513.0,129.5L506.4,131.8L501.8,136.0L499.5,127.4L497.5,123.4L494.2,121.2L476.8,116.0L476.4,110.0M422.1,63.2L424.2,52.7L430.2,42.6L445.8,25.3L450.3,17.0L452.4,-2.0L500.7,-2.0L502.3,9.8L502.9,24.4L504.9,36.4L504.8,56.8L505.7,63.7L505.2,69.7L502.8,78.0L499.5,86.0L496.1,91.0L492.9,92.6L488.2,92.2L484.9,93.6L480.8,97.9L477.8,103.7L476.4,110.0L476.8,116.0L465.8,118.3L460.3,118.7L454.8,117.7L438.2,110.9L432.5,109.7L428.3,99.3L425.3,87.2L422.1,63.2M439.8,69.1L455.3,69.6L456.8,85.3L443.8,84.3L439.8,69.1M500.7,-2.0L595.3,-2.0L595.2,-1.6L594.0,-1.0L591.7,-0.9L591.4,-1.0L591.0,-1.2L590.3,-1.2L589.3,-0.5L589.4,-0.2L589.0,0.8L588.2,2.9L588.5,4.0L588.8,5.6L588.6,7.3L586.8,10.2L585.9,13.1L585.4,14.1L584.6,14.8L582.3,16.6L581.9,16.6L579.7,20.8L577.6,22.8L569.3,25.2L504.9,36.4L502.9,24.4L502.3,9.8L500.7,-2.0M439.8,69.1L455.3,69.6L456.8,85.3L443.8,84.3L439.8,69.1M524.9,443.9L528.8,440.4L530.8,441.6L532.3,442.9L536.1,442.5L539.0,444.0L538.8,445.1L539.2,445.8L538.4,446.8L538.6,448.4L538.0,449.3L537.1,449.1L536.8,447.6L536.7,446.7L537.7,445.1L536.3,443.9L535.4,444.8L533.7,444.5L533.6,445.5L534.7,446.5L534.4,447.8L531.7,448.9L529.9,449.9L528.0,449.4L527.2,447.9L527.0,446.1L525.4,445.5L524.9,443.9M538.4,446.8L539.2,445.8L540.3,445.5L541.2,445.9L541.3,446.8L540.4,447.1L540.0,448.2L538.6,448.4L538.4,446.8M528.8,440.4L530.9,437.7L532.3,438.5L534.7,437.8L535.8,436.6L537.4,436.7L537.4,438.7L537.7,439.3L537.0,441.2L536.1,442.5L532.3,442.9L530.8,441.6L528.8,440.4M529.4,436.0L530.4,434.1L532.3,434.8L533.1,435.4L533.5,434.9L535.6,435.0L536.0,435.6L537.1,435.5L537.4,436.7L535.8,436.6L534.7,437.8L532.3,438.5L530.9,437.7L529.4,436.0" />
        <path stroke="#000000" fill="null" d="M284.2,115.4L284.7,112.7L288.2,99.9L289.3,91.6L291.0,87.7L293.1,84.5L295.2,82.5L296.1,82.4L298.2,82.7L299.1,82.5L302.3,80.2L303.2,79.8L306.3,78.9L310.4,78.5L315.2,79.8L317.0,83.0L317.0,87.0L312.4,105.9L314.9,107.6L323.6,109.8L325.5,110.8L326.7,112.4L332.2,118.4L334.2,119.7L338.4,119.6L340.9,119.9L343.1,121.5L346.6,125.2L348.1,124.7L348.8,125.4L350.6,138.2L351.6,142.2L354.2,145.0L358.0,146.9L366.9,149.5L371.4,149.6L375.5,148.7L378.9,146.4L380.8,145.7L387.5,145.0L390.3,147.2L388.8,152.7L391.2,150.7L393.4,146.4L395.5,144.3L396.8,145.2L399.1,145.6L401.2,145.0L401.9,143.0L400.7,141.5L398.2,142.1L395.6,143.1L394.1,143.0L394.6,140.2L401.5,134.4L403.3,131.4L404.1,129.3L407.8,125.3L408.6,123.0L408.6,114.9L407.7,110.3L405.4,105.7L399.3,97.7L399.3,101.8L398.3,100.2L397.1,98.9L396.0,97.6L391.3,64.7L388.8,57.2L390.3,46.9L388.6,42.1L385.9,37.3L384.4,33.5L386.2,31.7L386.2,32.5L386.8,32.9L388.1,33.1L390.3,33.1L390.3,31.7L389.3,29.2L389.5,24.8L390.5,20.3L394.0,13.2L393.5,9.0L392.1,4.6L391.3,0.1L391.5,-2.0L796.7,-2.0L787.9,13.1L786.3,18.8L782.6,27.3L781.2,29.6L778.7,32.6L773.9,42.8L771.2,46.5L764.8,51.9L763.2,53.8L762.0,55.1L761.2,56.9L760.8,58.6L760.7,62.7L760.2,63.6L756.8,66.1L755.4,69.0L755.6,71.2L758.0,77.1L759.2,74.3L759.4,72.9L760.7,72.9L759.4,79.9L753.0,92.6L754.0,97.7L757.4,94.6L760.7,92.2L760.1,95.1L755.3,103.3L755.2,104.6L755.6,107.6L755.3,108.8L754.3,109.3L751.2,109.7L750.2,110.0L744.9,117.0L738.3,122.3L732.3,128.6L731.6,129.1L730.9,129.6L730.3,130.7L729.9,132.3L730.0,133.8L730.3,135.1L730.3,136.1L727.5,140.6L719.2,145.8L715.7,149.9L714.5,148.4L718.3,143.0L720.3,139.3L721.1,135.4L722.5,132.7L731.7,126.4L733.0,123.2L734.0,118.6L735.6,114.5L741.6,111.0L743.2,107.3L742.1,103.9L736.8,103.3L732.9,105.0L731.0,107.8L730.3,111.3L730.3,114.9L729.0,118.1L725.8,119.9L718.5,122.3L707.4,128.3L704.6,129.2L697.6,130.2L690.7,132.0L688.4,133.9L686.1,136.1L683.4,138.1L677.6,139.5L675.4,140.7L673.3,141.5L671.8,141.0L670.1,140.1L668.4,140.8L655.4,151.9L654.3,154.0L647.3,162.2L637.8,167.2L634.9,169.7L632.9,173.0L631.4,177.1L630.1,185.6L630.4,190.4L633.5,197.4L634.2,201.3L636.3,203.1L640.8,203.5L645.3,204.8L647.3,208.8L646.2,211.7L638.1,221.2L641.3,221.9L642.9,222.7L644.7,223.9L637.4,228.1L634.1,230.7L632.7,234.1L631.7,237.9L629.3,240.9L619.0,249.6L617.5,252.0L615.9,264.9L614.7,268.6L613.0,271.8L605.7,281.3L602.4,280.5L600.2,279.5L598.7,280.5L597.1,285.5L596.6,294.4L598.9,302.8L603.3,309.7L609.0,314.1L613.8,316.8L616.3,319.5L617.5,323.3L621.5,343.3L622.8,345.5L625.2,347.7L631.4,357.9L632.7,361.3L633.5,366.6L635.6,371.8L638.6,376.8L642.0,381.2L641.0,381.7L639.1,383.3L638.1,383.9L646.0,393.4L647.3,395.5L648.7,397.2L660.8,406.7L663.2,409.4L663.4,411.6L659.8,412.4L652.8,412.7L648.6,413.5L644.7,415.0L641.8,417.6L640.7,420.7L640.7,429.4L641.2,432.9L648.2,456.9L649.0,464.1L651.1,471.8L652.6,475.0L655.0,478.1L663.2,486.0L665.1,489.4L665.3,492.1L664.5,499.0L665.3,500.4L668.9,503.8L669.7,505.7L669.4,508.8L668.4,511.8L666.9,514.0L444.7,514.0L445.9,511.4L449.1,507.6L450.8,504.3L452.0,501.1L455.0,499.6L462.7,498.3L465.5,497.2L468.5,495.4L470.8,493.2L471.8,490.8L472.8,489.7L477.5,487.7L479.1,486.7L483.2,480.1L500.2,463.5L501.8,462.8L503.9,462.7L508.1,462.9L509.5,462.4L512.8,458.7L518.0,455.0L519.9,452.3L520.7,448.6L519.9,443.9L515.8,437.1L514.1,432.9L512.7,424.8L511.5,422.0L505.8,414.2L504.9,411.8L503.3,410.6L494.3,406.9L493.6,405.8L493.6,404.5L493.0,403.4L491.0,402.9L472.0,402.3L460.1,400.2L459.0,399.9L457.4,399.4L454.8,398.3L452.9,396.6L452.1,394.1L452.3,387.3L451.9,384.0L450.8,381.2L450.5,387.6L450.8,389.3L450.2,390.0L448.2,392.0L447.4,390.7L446.9,390.6L445.5,392.0L447.8,378.8L447.0,375.6L444.0,375.2L442.3,379.0L441.6,387.9L437.6,385.7L436.2,388.3L436.2,390.3L436.3,398.1L434.5,410.9L435.0,415.0L442.5,423.6L443.3,425.9L442.3,428.1L441.9,431.1L445.5,445.2L446.3,454.2L444.5,461.9L439.9,467.0L432.5,468.3L430.7,467.8L429.3,467.1L427.9,466.6L425.8,466.8L425.2,467.7L424.9,469.1L423.9,470.4L421.1,471.0L420.4,470.4L419.9,468.9L419.0,467.5L410.2,464.9L408.6,464.1L404.8,459.2L403.8,453.7L404.7,441.8L404.0,435.0L401.9,431.3L394.1,426.0L391.9,427.2L389.9,427.4L388.4,426.5L387.5,424.8L386.2,424.8L380.0,415.8L377.9,409.7L381.5,406.9L383.7,406.2L382.3,404.7L378.2,402.2L378.8,400.0L380.4,398.2L382.2,396.6L383.5,394.9L384.7,395.1L385.8,394.3L386.7,392.7L387.5,390.6L384.3,390.3L382.8,389.8L382.1,388.6L381.9,386.4L381.2,385.4L379.9,385.2L377.6,385.2L375.6,383.8L373.6,381.1L371.5,379.7L369.0,382.4L370.0,387.1L369.2,394.1L367.3,400.6L365.0,404.1L362.4,404.3L358.9,403.5L355.8,402.2L354.5,400.9L353.5,398.6L348.6,396.8L346.6,394.9L348.2,394.2L349.2,393.3L349.9,392.2L350.6,390.6L349.7,391.0L346.6,392.0L342.2,377.1L340.8,369.5L342.2,351.4L341.4,343.4L334.7,314.8L332.9,312.9L331.7,312.1L331.6,310.1L332.2,306.6L332.2,302.1L331.5,300.5L327.5,294.5L324.3,287.9L322.3,284.8L311.4,274.0L309.7,270.3L310.3,268.6L313.1,266.7L313.7,265.6L313.6,263.8L313.4,262.4L312.4,259.5L316.0,261.8L319.9,261.0L323.0,257.8L324.3,253.3L324.0,251.9L323.0,250.4L322.0,249.1L321.0,248.6L320.5,247.6L320.0,245.4L319.2,243.0L317.6,241.5L317.3,242.4L316.3,244.4L312.8,236.7L312.4,234.1L312.9,231.9L315.4,226.7L316.3,223.9L315.8,218.1L312.5,215.2L308.4,212.6L305.7,207.6L310.0,206.6L310.9,203.4L309.7,195.0L310.4,191.6L311.3,188.7L311.7,185.5L311.1,181.4L308.0,173.2L305.7,169.2L303.2,166.3L298.2,165.0L295.2,167.8L292.8,170.8L289.9,170.4L289.3,171.2L287.2,173.2L284.3,167.2L284.7,144.3L285.1,141.0L287.9,132.5L288.6,128.5L288.0,126.7L285.3,123.7L284.7,121.7L284.2,115.4,M763.4,514.0L763.7,512.4L763.8,507.7L764.5,504.9L766.8,505.5L767.4,509.4L766.9,514.0L763.4,514.0,M780.6,514.0L781.1,513.4L782.3,513.5L782.4,514.0L780.6,514.0,M783.1,510.5L786.7,510.5L788.6,509.3L788.6,507.0L786.4,504.3L786.6,502.7L789.5,496.4L790.9,494.1L792.0,496.8L793.8,496.0L795.5,493.3L796.2,490.1L799.1,491.5L801.7,490.2L804.1,487.8L806.7,486.0L809.1,485.8L811.3,486.8L816.0,490.1L815.2,489.1L813.3,486.0L817.7,485.4L826.8,489.2L831.8,490.1L831.3,492.8L832.5,494.8L834.2,495.1L835.9,492.8L836.5,495.8L838.2,497.8L840.1,498.1L841.1,495.6L846.6,496.1L849.0,496.8L845.9,491.9L845.3,487.2L846.9,485.0L850.3,487.4L851.6,486.0L853.0,489.2L855.0,491.9L857.6,492.4L860.9,488.7L861.9,489.9L862.9,490.8L864.1,491.3L867.0,491.7L867.2,492.3L867.0,493.1L867.5,494.1L870.5,497.6L871.9,498.2L874.8,498.3L880.3,499.3L884.1,502.0L890.0,509.1L890.2,510.2L889.9,511.5L889.9,512.7L890.6,513.2L893.1,513.3L894.1,513.7L894.5,514.0L784.7,514.0L784.7,514.0L784.6,512.5L784.0,511.3L783.1,510.5M701.4,513.2L702.0,510.7L703.5,509.1L705.5,508.4L708.0,509.0L709.2,509.7L710.0,510.7L711.5,512.8L712.8,514.0L701.7,514.0L701.4,513.2M736.3,388.1L736.4,386.9L739.6,387.9L740.1,387.2L742.2,385.2L742.7,387.9L744.2,389.0L746.3,388.8L748.8,387.9L755.3,387.9L754.0,389.1L753.2,390.7L753.1,392.7L754.0,394.9L755.8,396.3L757.9,396.6L761.4,396.1L763.9,398.0L765.6,402.2L765.5,406.4L762.7,408.3L762.6,407.4L747.5,396.1L742.2,395.2L739.4,394.3L738.3,392.7L737.5,390.5L736.3,388.1M681.2,366.6L682.7,353.4L684.0,348.8L686.1,346.8L691.9,350.3L695.7,350.9L697.3,347.5L698.8,345.8L702.2,345.4L710.2,346.4L713.2,348.3L714.9,347.3L717.1,348.1L718.3,350.4L717.1,353.7L721.7,354.0L725.4,355.9L727.2,359.2L726.3,363.4L722.2,358.3L720.0,357.1L717.1,357.8L715.2,359.8L714.7,362.0L715.4,363.1L717.1,362.0L718.6,366.8L718.6,369.2L716.8,370.7L710.7,374.6L710.0,375.2L710.2,376.2L710.6,383.3L711.0,385.3L711.9,387.9L715.4,387.4L717.8,390.8L719.2,395.8L721.1,408.3L720.7,411.1L716.9,420.8L713.2,424.1L708.6,426.6L704.6,427.5L700.1,425.7L698.5,421.3L698.8,416.0L699.9,411.2L703.6,410.4L703.4,402.6L700.6,393.6L696.7,389.3L693.7,388.4L692.8,386.0L693.4,379.0L692.5,376.9L688.3,370.4L686.8,368.7L683.7,367.7L681.8,367.7L681.2,366.6M777.0,415.8L781.8,413.1L786.2,411.5L789.3,409.9L792.5,409.1L795.3,410.4L796.6,411.6L796.8,414.5L792.6,418.4L788.2,419.3L784.2,419.6L777.6,418.8L777.0,415.8M316.3,95.3L317.3,93.4L320.3,90.2L322.3,89.6L323.8,89.1L324.1,88.3L324.5,87.2L326.1,85.9L328.2,86.3L329.6,87.3L330.3,88.5L330.7,89.9L332.3,93.7L332.2,102.3L333.3,105.1L333.6,107.8L332.3,109.7L329.9,110.1L327.6,108.2L326.7,106.6L322.9,103.6L319.1,98.4L316.9,97.0L316.3,95.3" />
      </g>
    </g>
  </svg>